<?xml version="1.0" encoding="UTF-8"?>
<svg version="1.1" xmlns="http://www.w3.org/2000/svg" width="668" height="374">
<path d="M0 0 C0.95777344 0.00902344 1.91554687 0.01804688 2.90234375 0.02734375 C3.61519531 0.03894531 4.32804688 0.05054688 5.0625 0.0625 C5.09138146 3.37498187 5.10925799 6.68743167 5.125 10 C5.13337891 10.94552734 5.14175781 11.89105469 5.15039062 12.86523438 C5.15361328 13.76435547 5.15683594 14.66347656 5.16015625 15.58984375 C5.16539307 16.42249756 5.17062988 17.25515137 5.17602539 18.11303711 C5.0625 20.0625 5.0625 20.0625 4.0625 21.0625 C1.96861865 21.2761182 -0.1260892 21.48369578 -2.22363281 21.65771484 C-10.6471376 22.36470459 -18.22348537 23.37436341 -25.9375 27.0625 C-26.62199219 27.38347656 -27.30648437 27.70445313 -28.01171875 28.03515625 C-32.26144123 30.2357463 -33.78551008 32.1225126 -36.9375 36.0625 C-20.1075 36.0625 -3.2775 36.0625 14.0625 36.0625 C14.0625 65.97235577 14.0625 65.97235577 6.296875 75.08203125 C1.17887146 79.61844348 -5.05280335 83.0625 -11.9375 83.0625 C-11.44121094 83.74054688 -10.94492188 84.41859375 -10.43359375 85.1171875 C1.60003236 101.60348361 1.60003236 101.60348361 4.38671875 106.2890625 C5.82056483 108.66209448 7.33589529 110.91164316 8.91015625 113.19140625 C12.28617759 118.23408422 14.92389983 123.51429084 17.5 129 C17.97518066 130.00562988 18.45036133 131.01125977 18.93994141 132.04736328 C25.59614961 146.30163202 31.19870437 160.80017475 35.0625 176.0625 C35.26004883 176.82272461 35.45759766 177.58294922 35.66113281 178.36621094 C38.51411293 189.72676841 39.43852442 200.79287892 39.5 212.5 C39.5100708 213.73129639 39.5201416 214.96259277 39.53051758 216.23120117 C39.3486974 235.45642845 33.65468672 252.17421992 23.0625 268.0625 C22.4025 268.0625 21.7425 268.0625 21.0625 268.0625 C20.87558594 268.73925781 20.68867188 269.41601562 20.49609375 270.11328125 C18.46683569 274.28791294 15.43497606 277.04712124 12.125 280.25 C11.49142578 280.87841797 10.85785156 281.50683594 10.20507812 282.15429688 C3.17865976 289.0625 3.17865976 289.0625 -0.9375 289.0625 C-1.2675 290.0525 -1.5975 291.0425 -1.9375 292.0625 C-4.04780883 293.48863089 -6.068228 294.69544309 -8.3125 295.875 C-8.96863281 296.22248291 -9.62476563 296.56996582 -10.30078125 296.92797852 C-24.27717434 304.0186556 -38.65300984 307.23987866 -54.25 307.25 C-55.23162109 307.26224609 -56.21324219 307.27449219 -57.22460938 307.28710938 C-66.85147088 307.30622293 -75.58024855 305.45148396 -84.6875 302.4375 C-85.45175293 302.18532715 -86.21600586 301.9331543 -87.00341797 301.67333984 C-94.54202114 299.06014552 -101.21802739 295.31888619 -107.9375 291.0625 C-107.9375 290.4025 -107.9375 289.7425 -107.9375 289.0625 C-108.52394287 288.95977783 -109.11038574 288.85705566 -109.71459961 288.7512207 C-112.30894545 287.94741514 -113.53747 286.90062227 -115.50390625 285.04296875 C-116.15423828 284.43259766 -116.80457031 283.82222656 -117.47460938 283.19335938 C-118.14298828 282.55205078 -118.81136719 281.91074219 -119.5 281.25 C-120.50836914 280.30543945 -120.50836914 280.30543945 -121.53710938 279.34179688 C-124.62939511 276.41533381 -127.55007644 273.6125739 -129.9375 270.0625 C-129.9375 269.4025 -129.9375 268.7425 -129.9375 268.0625 C-130.5975 268.0625 -131.2575 268.0625 -131.9375 268.0625 C-148.45557615 240.6392862 -152.16591193 212.0559529 -144.4375 180.75 C-144.17710937 179.77160156 -143.91671875 178.79320312 -143.6484375 177.78515625 C-143.03213482 175.42492017 -142.52959149 173.08024225 -142.0625 170.6875 C-140.92337263 165.42262562 -139.00781771 160.44065269 -137.1484375 155.39453125 C-136.22544326 152.85480839 -135.39824588 150.33585473 -134.625 147.75 C-129.39336473 131.93752936 -120.47023537 116.61822461 -110.9375 103.0625 C-110.55271484 102.51529297 -110.16792969 101.96808594 -109.77148438 101.40429688 C-101.43089811 89.57053639 -101.43089811 89.57053639 -96.9375 84.0625 C-97.66195312 83.82015625 -98.38640625 83.5778125 -99.1328125 83.328125 C-108.43874181 80.10206951 -114.74789092 76.63101344 -119.9375 68.0625 C-123.64748742 58.34586628 -123.38248014 47.32321846 -122.9375 37.0625 C-120.77340696 34.89840696 -115.74871632 35.87341254 -112.7421875 35.859375 C-111.80255157 35.85367493 -110.86291565 35.84797485 -109.89480591 35.84210205 C-107.89228446 35.83262506 -105.88974722 35.82610743 -103.88720703 35.82226562 C-100.87372792 35.81269447 -97.86097106 35.78175566 -94.84765625 35.75 C-83.81735783 35.6909961 -73.64237115 36.26442014 -62.9375 39.0625 C-62.70232666 38.4739624 -62.46715332 37.8854248 -62.22485352 37.27905273 C-59.58847104 30.7907193 -55.98100333 22.40459964 -49.71875 18.77734375 C-49.1309375 18.54144531 -48.543125 18.30554688 -47.9375 18.0625 C-47.9375 17.4025 -47.9375 16.7425 -47.9375 16.0625 C-34.81577856 4.76244921 -17.13198975 -0.21150605 0 0 Z " fill="#8AD930" transform="translate(167.9375,37.9375)"/>
<path d="M0 0 C0.95777344 0.00902344 1.91554687 0.01804688 2.90234375 0.02734375 C3.61519531 0.03894531 4.32804688 0.05054688 5.0625 0.0625 C5.09138146 3.37498187 5.10925799 6.68743167 5.125 10 C5.13337891 10.94552734 5.14175781 11.89105469 5.15039062 12.86523438 C5.15361328 13.76435547 5.15683594 14.66347656 5.16015625 15.58984375 C5.16539307 16.42249756 5.17062988 17.25515137 5.17602539 18.11303711 C5.0625 20.0625 5.0625 20.0625 4.0625 21.0625 C1.96861865 21.2761182 -0.1260892 21.48369578 -2.22363281 21.65771484 C-10.6471376 22.36470459 -18.22348537 23.37436341 -25.9375 27.0625 C-26.62199219 27.38347656 -27.30648437 27.70445313 -28.01171875 28.03515625 C-32.26144123 30.2357463 -33.78551008 32.1225126 -36.9375 36.0625 C-20.1075 36.0625 -3.2775 36.0625 14.0625 36.0625 C14.0625 65.97235577 14.0625 65.97235577 6.296875 75.08203125 C1.17887146 79.61844348 -5.05280335 83.0625 -11.9375 83.0625 C-11.44121094 83.74054688 -10.94492188 84.41859375 -10.43359375 85.1171875 C1.60003236 101.60348361 1.60003236 101.60348361 4.38671875 106.2890625 C5.82056483 108.66209448 7.33589529 110.91164316 8.91015625 113.19140625 C12.28617759 118.23408422 14.92389983 123.51429084 17.5 129 C17.97518066 130.00562988 18.45036133 131.01125977 18.93994141 132.04736328 C25.59614961 146.30163202 31.19870437 160.80017475 35.0625 176.0625 C35.26004883 176.82272461 35.45759766 177.58294922 35.66113281 178.36621094 C38.51411293 189.72676841 39.43852442 200.79287892 39.5 212.5 C39.5100708 213.73129639 39.5201416 214.96259277 39.53051758 216.23120117 C39.3486974 235.45642845 33.65468672 252.17421992 23.0625 268.0625 C22.4025 268.0625 21.7425 268.0625 21.0625 268.0625 C20.87558594 268.73925781 20.68867188 269.41601562 20.49609375 270.11328125 C18.46683569 274.28791294 15.43497606 277.04712124 12.125 280.25 C11.49142578 280.87841797 10.85785156 281.50683594 10.20507812 282.15429688 C3.17865976 289.0625 3.17865976 289.0625 -0.9375 289.0625 C-1.2675 290.0525 -1.5975 291.0425 -1.9375 292.0625 C-4.04780883 293.48863089 -6.068228 294.69544309 -8.3125 295.875 C-8.96863281 296.22248291 -9.62476563 296.56996582 -10.30078125 296.92797852 C-24.27717434 304.0186556 -38.65300984 307.23987866 -54.25 307.25 C-55.23162109 307.26224609 -56.21324219 307.27449219 -57.22460938 307.28710938 C-66.85147088 307.30622293 -75.58024855 305.45148396 -84.6875 302.4375 C-85.45175293 302.18532715 -86.21600586 301.9331543 -87.00341797 301.67333984 C-94.54202114 299.06014552 -101.21802739 295.31888619 -107.9375 291.0625 C-107.9375 290.4025 -107.9375 289.7425 -107.9375 289.0625 C-108.52394287 288.95977783 -109.11038574 288.85705566 -109.71459961 288.7512207 C-112.30894545 287.94741514 -113.53747 286.90062227 -115.50390625 285.04296875 C-116.15423828 284.43259766 -116.80457031 283.82222656 -117.47460938 283.19335938 C-118.14298828 282.55205078 -118.81136719 281.91074219 -119.5 281.25 C-120.50836914 280.30543945 -120.50836914 280.30543945 -121.53710938 279.34179688 C-124.62939511 276.41533381 -127.55007644 273.6125739 -129.9375 270.0625 C-129.9375 269.4025 -129.9375 268.7425 -129.9375 268.0625 C-130.5975 268.0625 -131.2575 268.0625 -131.9375 268.0625 C-148.45557615 240.6392862 -152.16591193 212.0559529 -144.4375 180.75 C-144.17710937 179.77160156 -143.91671875 178.79320312 -143.6484375 177.78515625 C-143.03213482 175.42492017 -142.52959149 173.08024225 -142.0625 170.6875 C-140.92337263 165.42262562 -139.00781771 160.44065269 -137.1484375 155.39453125 C-136.22544326 152.85480839 -135.39824588 150.33585473 -134.625 147.75 C-129.39336473 131.93752936 -120.47023537 116.61822461 -110.9375 103.0625 C-110.55271484 102.51529297 -110.16792969 101.96808594 -109.77148438 101.40429688 C-101.43089811 89.57053639 -101.43089811 89.57053639 -96.9375 84.0625 C-97.66195312 83.82015625 -98.38640625 83.5778125 -99.1328125 83.328125 C-108.43874181 80.10206951 -114.74789092 76.63101344 -119.9375 68.0625 C-123.64748742 58.34586628 -123.38248014 47.32321846 -122.9375 37.0625 C-120.77340696 34.89840696 -115.74871632 35.87341254 -112.7421875 35.859375 C-111.80255157 35.85367493 -110.86291565 35.84797485 -109.89480591 35.84210205 C-107.89228446 35.83262506 -105.88974722 35.82610743 -103.88720703 35.82226562 C-100.87372792 35.81269447 -97.86097106 35.78175566 -94.84765625 35.75 C-83.81735783 35.6909961 -73.64237115 36.26442014 -62.9375 39.0625 C-62.70232666 38.4739624 -62.46715332 37.8854248 -62.22485352 37.27905273 C-59.58847104 30.7907193 -55.98100333 22.40459964 -49.71875 18.77734375 C-49.1309375 18.54144531 -48.543125 18.30554688 -47.9375 18.0625 C-47.9375 17.4025 -47.9375 16.7425 -47.9375 16.0625 C-34.81577856 4.76244921 -17.13198975 -0.21150605 0 0 Z M-69.9375 88.0625 C-70.989375 88.51625 -72.04125 88.97 -73.125 89.4375 C-76.47041039 91.37040378 -79.10425498 93.43162963 -81.9375 96.0625 C-81.9375 96.7225 -81.9375 97.3825 -81.9375 98.0625 C-82.9275 98.3925 -83.9175 98.7225 -84.9375 99.0625 C-87.34745366 101.69791018 -87.34745366 101.69791018 -87.9375 105.0625 C-88.5975 105.0625 -89.2575 105.0625 -89.9375 105.0625 C-91.45755462 106.94736773 -92.83141228 108.81362613 -94.1875 110.8125 C-94.78921021 111.69071411 -94.78921021 111.69071411 -95.40307617 112.58666992 C-99.13749419 118.15349029 -102.09165732 123.9988656 -104.9375 130.0625 C-105.72528008 131.6061563 -106.51644671 133.14809382 -107.3125 134.6875 C-109.08210521 137.73852872 -109.08210521 137.73852872 -108.9375 140.0625 C-109.5975 140.0625 -110.2575 140.0625 -110.9375 140.0625 C-111.17984375 140.76375 -111.4221875 141.465 -111.671875 142.1875 C-114.74123803 150.87615842 -114.74123803 150.87615842 -116.9375 154.9375 C-121.30330726 163.39731329 -123.26470582 173.07496416 -125.625 182.25 C-125.94682251 183.47831543 -125.94682251 183.47831543 -126.27514648 184.73144531 C-131.58055947 205.8683801 -130.31122996 227.96554809 -121.9375 248.0625 C-121.2775 248.0625 -120.6175 248.0625 -119.9375 248.0625 C-119.710625 248.92101562 -119.48375 249.77953125 -119.25 250.6640625 C-117.75121935 254.54483382 -115.63424717 257.34152668 -112.9375 260.4375 C-112.21143555 261.28405151 -112.21143555 261.28405151 -111.47070312 262.14770508 C-106.30373011 268.02270121 -100.43661114 272.72975924 -93.9375 277.0625 C-92.9475 277.0625 -91.9575 277.0625 -90.9375 277.0625 C-90.6075 278.0525 -90.2775 279.0425 -89.9375 280.0625 C-85.77396222 282.15063516 -81.33733331 283.54852618 -76.9375 285.0625 C-76.08929688 285.38863281 -75.24109375 285.71476563 -74.3671875 286.05078125 C-65.21161219 289.15661146 -54.50845452 288.88866139 -44.9375 288.0625 C-44.6075 287.7325 -44.2775 287.4025 -43.9375 287.0625 C-41.79647568 286.62178846 -39.6493834 286.21044827 -37.5 285.8125 C-31.8442103 284.64332962 -27.1567998 283.04758706 -22.12109375 280.24609375 C-19.78537518 278.98004236 -17.40870492 278.03246805 -14.9375 277.0625 C-12.17308031 275.65490659 -12.17308031 275.65490659 -9.9375 274.0625 C-9.9375 273.4025 -9.9375 272.7425 -9.9375 272.0625 C-9.40125 271.835625 -8.865 271.60875 -8.3125 271.375 C2.38026225 265.46584192 12.62437917 252.00041135 16.40625 240.4296875 C16.6228125 239.64851562 16.839375 238.86734375 17.0625 238.0625 C17.3409375 237.07507813 17.619375 236.08765625 17.90625 235.0703125 C23.21150521 213.01420518 20.1131503 190.46762164 12.81030273 169.2487793 C12.05946166 167.05361709 11.35860707 164.84758453 10.66796875 162.6328125 C8.16194116 154.72319029 5.58339851 147.37264715 1.26171875 140.2265625 C0.11034607 138.14884111 -0.48720496 136.38284383 -0.9375 134.0625 C-1.5975 134.0625 -2.2575 134.0625 -2.9375 134.0625 C-3.11925781 133.44761719 -3.30101562 132.83273438 -3.48828125 132.19921875 C-3.73964844 131.39097656 -3.99101562 130.58273438 -4.25 129.75 C-4.49363281 128.94949219 -4.73726563 128.14898437 -4.98828125 127.32421875 C-5.99705858 124.92058881 -7.0756871 123.83749261 -8.9375 122.0625 C-9.89453125 120.30078125 -9.89453125 120.30078125 -10.75 118.375 C-12.93803917 113.81448923 -15.7994282 110.00847646 -18.9375 106.0625 C-19.618125 105.175625 -20.29875 104.28875 -21 103.375 C-27.95057259 95.0791553 -35.59837083 88.50887639 -45.9375 85.0625 C-54.3667905 84.53693273 -62.1460324 84.49552011 -69.9375 88.0625 Z " fill="#1C5205" transform="translate(167.9375,37.9375)"/>
<path d="M0 0 C0.92039063 -0.00708984 1.84078125 -0.01417969 2.7890625 -0.02148438 C16.50008805 0.1040391 27.0660383 5.50520275 36.9375 14.875 C40.63934272 18.75500628 42.94931023 22.52417224 45 27.4375 C45.556875 28.489375 46.11375 29.54125 46.6875 30.625 C50.85291852 39.55089683 50.41896896 52.70046172 48.09375 62.1015625 C46.91059761 65.03669054 45.5963459 67.70690832 44 70.4375 C43.53078125 71.25476563 43.0615625 72.07203125 42.578125 72.9140625 C35.68128124 84.00092425 26.28631303 91.23803648 13.71362305 94.84423828 C9.23617427 95.82311372 4.87758626 95.83300157 0.3125 95.75 C-1.03424805 95.75483398 -1.03424805 95.75483398 -2.40820312 95.75976562 C-9.20013776 95.70503209 -14.98156201 94.80782528 -21 91.4375 C-21 90.7775 -21 90.1175 -21 89.4375 C-22.2375 89.1590625 -22.2375 89.1590625 -23.5 88.875 C-33.30082365 84.84966171 -40.02763446 75.2759491 -44.15625 65.77734375 C-49.60735105 50.66063296 -47.60779526 37.4900749 -40.953125 23.1875 C-37.88771885 17.35820306 -33.16057186 13.36936427 -28 9.4375 C-27.49855469 9.0353125 -26.99710938 8.633125 -26.48046875 8.21875 C-18.33151659 1.95913335 -10.17757249 -0.2209417 0 0 Z " fill="#1B5301" transform="translate(111,200.5625)"/>
<path d="M0 0 C10.15550102 0.4513556 19.1555987 6.81337864 26 14 C27.39712274 15.95597184 28.73779907 17.95436401 30 20 C31.23417911 21.45569843 32.46847154 22.91130817 33.70703125 24.36328125 C36.09534351 27.38655266 38.02263959 30.69980615 40 34 C40.515625 34.825 41.03125 35.65 41.5625 36.5 C47 45.95652174 47 45.95652174 47 49 C47.66 49 48.32 49 49 49 C49.391875 50.11375 49.78375 51.2275 50.1875 52.375 C51.37821259 55.57818459 52.7731465 58.54576013 54.375 61.5625 C57.72362188 68.09836439 59.78149366 75.02243973 62 82 C62.49335062 83.43494362 62.9868472 84.86983706 63.48046875 86.3046875 C71.29663549 109.78558891 74.6896366 137.76680458 64 161 C58.21775521 170.38613697 51.07594802 180.58042701 42 187 C41.34 187 40.68 187 40 187 C40 187.66 40 188.32 40 189 C30.49851109 195.4660416 19.87625037 199.50509222 8.6328125 201.4921875 C6.08456214 201.72864036 6.08456214 201.72864036 5 203 C1.54885297 203.25146124 -1.91577203 203.18522419 -5.375 203.1875 C-6.34695312 203.19974609 -7.31890625 203.21199219 -8.3203125 203.22460938 C-9.72023438 203.22750977 -9.72023438 203.22750977 -11.1484375 203.23046875 C-12.00614746 203.23457764 -12.86385742 203.23868652 -13.74755859 203.24291992 C-16 203 -16 203 -19 201 C-12.07 201 -5.14 201 2 201 C2 200.67 2 200.34 2 200 C9.425 199.01 9.425 199.01 17 198 C17 197.34 17 196.68 17 196 C18.60875 195.38125 18.60875 195.38125 20.25 194.75 C23.54509777 193.3587365 25.55176356 191.62958728 28 189 C28.66 189 29.32 189 30 189 C30 188.34 30 187.68 30 187 C31.13545325 185.86454675 32.27527514 184.73321162 33.43359375 183.62109375 C39.94923835 176.87797029 44.60937056 169.1016049 48.625 160.6875 C48.93695313 160.06166016 49.24890625 159.43582031 49.5703125 158.79101562 C57.45350536 142.22611684 53.76584298 118.830702 50.75 101.3125 C50.54552246 100.11471924 50.34104492 98.91693848 50.13037109 97.68286133 C49.01253626 91.72234292 47.58335361 86.4280626 44.93652344 80.96850586 C43.57571665 78.10818648 42.66490654 75.15290496 41.75 72.125 C41.41484375 71.03445312 41.0796875 69.94390625 40.734375 68.8203125 C40 66 40 66 40 63 C39.34 63 38.68 63 38 63 C37.59007812 61.85660156 37.18015625 60.71320313 36.7578125 59.53515625 C36.21391748 58.04413369 35.66962611 56.55325567 35.125 55.0625 C34.85558594 54.30775391 34.58617187 53.55300781 34.30859375 52.77539062 C33.08380586 48.64902908 33.08380586 48.64902908 30 46 C28.82695934 43.84893299 27.74084016 41.70856123 26.6875 39.5 C26.06388614 38.22458173 25.43888216 36.94984224 24.8125 35.67578125 C24.50570312 35.05010254 24.19890625 34.42442383 23.8828125 33.77978516 C22.69729093 31.38972646 21.46022929 29.03220068 20.1875 26.6875 C19.80980469 25.99011719 19.43210938 25.29273438 19.04296875 24.57421875 C18.07566767 22.83007236 18.07566767 22.83007236 16 22 C15.690625 21.01 15.38125 20.02 15.0625 19 C14.711875 18.01 14.36125 17.02 14 16 C13.01 15.67 12.02 15.34 11 15 C10.67 14.01 10.34 13.02 10 12 C9.34 11.505 8.68 11.01 8 10.5 C6 9 6 9 5 6 C3.35353315 4.31337542 1.68816933 2.64488294 0 1 C0 0.67 0 0.34 0 0 Z " fill="#69B01A" transform="translate(118,123)"/>
<path d="M0 0 C0.97259766 0.50853516 0.97259766 0.50853516 1.96484375 1.02734375 C7.72247028 4.56759113 11.55108721 10.609881 13.65234375 16.9765625 C15.27685782 26.43159945 13.78966916 35.10251027 8.46484375 43.08203125 C3.38356516 49.73511868 -2.87711553 53.11070887 -11 55 C-18.053679 55.78374211 -23.74087761 55.41406676 -30 52 C-30 51.34 -30 50.68 -30 50 C-30.88171875 49.86078125 -30.88171875 49.86078125 -31.78125 49.71875 C-37.15201501 47.97892471 -40.87887672 41.73605682 -43.4375 36.9375 C-46.3221912 29.64389211 -46.33166324 21.31847068 -44.03515625 13.87109375 C-40.12282305 5.71756456 -33.37376436 0.14528551 -25.015625 -3.19140625 C-16.13700525 -5.57207243 -8.03264236 -4.23285328 0 0 Z " fill="#8AD930" transform="translate(128,223)"/>
<path d="M0 0 C0.98613281 -0.020625 1.97226562 -0.04125 2.98828125 -0.0625 C9.68352802 -0.09825566 14.73551616 0.37840726 20.15234375 4.65234375 C23.67397494 9.31227997 24.10025824 13.58981483 23.8828125 19.359375 C23.11277531 23.74266361 21.34071859 25.98770955 18.375 29.25 C18.7875 29.930625 19.2 30.61125 19.625 31.3125 C21.58462744 34.60187463 23.4787415 37.92371185 25.375 41.25 C25.41258423 39.4402771 25.41258423 39.4402771 25.45092773 37.59399414 C25.54482523 33.13424339 25.64508833 28.67465487 25.74731445 24.21508789 C25.79073041 22.28185815 25.83240042 20.34858841 25.87231445 18.4152832 C25.92985631 15.64261798 25.9935962 12.87015543 26.05859375 10.09765625 C26.07530624 9.22786636 26.09201874 8.35807648 26.10923767 7.46192932 C26.26112829 1.36387171 26.26112829 1.36387171 27.375 0.25 C29.37299572 0.15126184 31.37457158 0.12028201 33.375 0.125 C34.468125 0.12242187 35.56125 0.11984375 36.6875 0.1171875 C39.375 0.25 39.375 0.25 40.375 1.25 C40.60692865 2.76469448 40.78715238 4.28754562 40.9375 5.8125 C41.02128906 6.63878906 41.10507812 7.46507812 41.19140625 8.31640625 C41.25199219 8.95449219 41.31257812 9.59257812 41.375 10.25 C42.096875 9.528125 42.81875 8.80625 43.5625 8.0625 C44.490625 7.134375 45.41875 6.20625 46.375 5.25 C47.3340625 3.8578125 47.3340625 3.8578125 48.3125 2.4375 C53.41917676 -1.21012626 59.30032236 -0.11990595 65.375 0.25 C64.74151054 3.96415741 63.08842582 6.44130299 60.9375 9.5 C60.32003906 10.39203125 59.70257812 11.2840625 59.06640625 12.203125 C58.50824219 12.87859375 57.95007813 13.5540625 57.375 14.25 C56.715 14.25 56.055 14.25 55.375 14.25 C53.26291026 18.06575438 53.26291026 18.06575438 52.375 22.25 C54.26729266 24.88624434 54.26729266 24.88624434 56.375 27.25 C56.375 27.91 56.375 28.57 56.375 29.25 C57.035 29.25 57.695 29.25 58.375 29.25 C58.931875 30.301875 59.48875 31.35375 60.0625 32.4375 C61.58537282 35.14482946 62.83849122 36.70295733 65.125 38.9375 C67.375 41.25 67.375 41.25 67.375 45.25 C65.12606046 45.35823773 62.87562425 45.43569645 60.625 45.5 C59.37203125 45.54640625 58.1190625 45.5928125 56.828125 45.640625 C53.375 45.25 53.375 45.25 50.921875 43.359375 C49.375 41.25 49.375 41.25 49.375 39.25 C48.715 39.25 48.055 39.25 47.375 39.25 C46.04166667 37.25 44.70833333 35.25 43.375 33.25 C42.715 33.25 42.055 33.25 41.375 33.25 C41.31441406 34.03246094 41.25382813 34.81492188 41.19140625 35.62109375 C41.10761719 36.63300781 41.02382813 37.64492187 40.9375 38.6875 C40.85628906 39.69683594 40.77507813 40.70617187 40.69140625 41.74609375 C40.375 44.25 40.375 44.25 39.375 45.25 C34.92321895 45.5319205 30.45964192 45.48183445 26 45.5 C24.741875 45.520625 23.48375 45.54125 22.1875 45.5625 C20.98351562 45.56765625 19.77953125 45.5728125 18.5390625 45.578125 C17.42998535 45.5874707 16.3209082 45.59681641 15.17822266 45.60644531 C12.375 45.25 12.375 45.25 10.57641602 43.88452148 C8.98881573 41.72459792 7.84801072 39.4776169 6.6875 37.0625 C6.03201172 35.71091797 6.03201172 35.71091797 5.36328125 34.33203125 C5.03714844 33.64496094 4.71101562 32.95789063 4.375 32.25 C3.715 32.25 3.055 32.25 2.375 32.25 C2.31441406 33.10464844 2.25382813 33.95929688 2.19140625 34.83984375 C2.10761719 35.94457031 2.02382813 37.04929688 1.9375 38.1875 C1.85628906 39.28964844 1.77507813 40.39179688 1.69140625 41.52734375 C1.375 44.25 1.375 44.25 0.375 45.25 C-1.64464199 45.32244053 -3.66667124 45.33377188 -5.6875 45.3125 C-6.79222656 45.30347656 -7.89695312 45.29445312 -9.03515625 45.28515625 C-10.31712891 45.26775391 -10.31712891 45.26775391 -11.625 45.25 C-11.65027124 39.00204325 -11.66783344 32.75409959 -11.67993164 26.50610352 C-11.68497298 24.37881986 -11.69180591 22.25153969 -11.70043945 20.12426758 C-11.71251379 17.07372174 -11.71823014 14.02322155 -11.72265625 10.97265625 C-11.72781754 10.01537125 -11.73297882 9.05808624 -11.73829651 8.0717926 C-11.73837204 7.19095505 -11.73844757 6.31011749 -11.73852539 5.40258789 C-11.740746 4.62315323 -11.74296661 3.84371857 -11.74525452 3.04066467 C-11.41740431 -1.84122918 -3.64163171 0.01860348 0 0 Z M1.375 12.25 C1.375 14.56 1.375 16.87 1.375 19.25 C4.015 19.25 6.655 19.25 9.375 19.25 C9.375 18.59 9.375 17.93 9.375 17.25 C10.035 17.25 10.695 17.25 11.375 17.25 C11.02713292 15.27463255 11.02713292 15.27463255 10.375 13.25 C7.41835481 11.7716774 4.63270263 12.18967217 1.375 12.25 Z " fill="#255611" transform="translate(520.625,187.75)"/>
<path d="M0 0 C5.16016911 0.04010494 5.16016911 0.04010494 7.734375 2.1015625 C9.29516552 4.1852983 10.57877027 6.27071727 11.8125 8.5625 C12.20050781 9.24054688 12.58851563 9.91859375 12.98828125 10.6171875 C13.34277344 11.23851562 13.69726562 11.85984375 14.0625 12.5 C15.4715905 15.62317033 15.4715905 15.62317033 17.8125 16.5625 C17.895 16.005625 17.9775 15.44875 18.0625 14.875 C19.04052264 11.85943018 20.82265324 10.020546 22.8125 7.5625 C23.84291427 5.57799844 24.84935937 3.58050895 25.8125 1.5625 C26.8125 0.5625 26.8125 0.5625 29.53515625 0.46484375 C31.18837891 0.48224609 31.18837891 0.48224609 32.875 0.5 C34.53208984 0.51353516 34.53208984 0.51353516 36.22265625 0.52734375 C37.07730469 0.53894531 37.93195313 0.55054688 38.8125 0.5625 C40.59973404 31.99867021 40.59973404 31.99867021 38.8125 45.5625 C37.00007948 45.58937279 35.18754767 45.60883715 33.375 45.625 C32.36566406 45.63660156 31.35632813 45.64820313 30.31640625 45.66015625 C27.8125 45.5625 27.8125 45.5625 26.8125 44.5625 C26.57548761 41.70372091 26.39030818 38.86366703 26.25 36 C26.18522461 34.79053711 26.18522461 34.79053711 26.11914062 33.55664062 C26.01274738 31.55881195 25.91209112 29.5606793 25.8125 27.5625 C24.4925 30.2025 23.1725 32.8425 21.8125 35.5625 C21.1525 35.5625 20.4925 35.5625 19.8125 35.5625 C19.4825 36.5525 19.1525 37.5425 18.8125 38.5625 C16.18002711 38.20676042 14.28198554 37.91026706 12.125 36.3125 C10.53729209 34.19555612 9.75929725 32.02417285 8.8125 29.5625 C8.1525 28.9025 7.4925 28.2425 6.8125 27.5625 C6.4825 33.5025 6.1525 39.4425 5.8125 45.5625 C-2.68359375 45.66015625 -2.68359375 45.66015625 -5.1875 45.5625 C-6.71834425 44.03165575 -6.31465779 42.65046856 -6.31689453 40.51757812 C-6.32004669 39.65998901 -6.32319885 38.8023999 -6.32644653 37.91882324 C-6.3244223 36.98654907 -6.32239807 36.0542749 -6.3203125 35.09375 C-6.32126923 34.14310669 -6.32222595 33.19246338 -6.32321167 32.2130127 C-6.32389357 30.19881118 -6.32203862 28.18460748 -6.31787109 26.17041016 C-6.31252298 23.07579645 -6.31781577 19.9813279 -6.32421875 16.88671875 C-6.32355797 14.93489551 -6.32227681 12.98307236 -6.3203125 11.03125 C-6.32233673 10.09897583 -6.32436096 9.16670166 -6.32644653 8.20617676 C-6.32329437 7.34858765 -6.32014221 6.49099854 -6.31689453 5.60742188 C-6.31609894 4.84876831 -6.31530334 4.09011475 -6.31448364 3.30847168 C-6.04436793 -0.40550581 -3.15732501 0.20026218 0 0 Z " fill="#20520B" transform="translate(423.1875,187.4375)"/>
<path d="M0 0 C0.9384375 -0.020625 1.876875 -0.04125 2.84375 -0.0625 C10.21619887 -0.10380223 15.13962583 0.75248445 20.75 5.875 C23.38584913 10.06134862 24.19293797 13.3262579 23.875 18.25 C22.70354109 21.59702545 21.28249491 24.50313243 19.58984375 27.60546875 C18.5741156 30.30506821 18.5741156 30.30506821 19.9921875 33.00390625 C20.86230469 34.39416016 20.86230469 34.39416016 21.75 35.8125 C24.875 40.86434978 24.875 40.86434978 24.875 45.25 C20.45208369 45.71625179 16.28015157 45.95118452 11.875 45.25 C9.23837966 42.98768067 8.15414966 40.43313741 6.875 37.25 C4.99577172 33.58415424 4.99577172 33.58415424 1.875 31.25 C1.88660156 31.84167969 1.89820313 32.43335938 1.91015625 33.04296875 C1.92369141 34.22826172 1.92369141 34.22826172 1.9375 35.4375 C1.94910156 36.21480469 1.96070313 36.99210937 1.97265625 37.79296875 C1.875 40.25 1.875 40.25 0.875 45.25 C-3.085 45.25 -7.045 45.25 -11.125 45.25 C-11.14964455 39.00203746 -11.16783343 32.75410297 -11.17993164 26.50610352 C-11.18497298 24.37881986 -11.19180591 22.25153969 -11.20043945 20.12426758 C-11.21251379 17.07372174 -11.21823014 14.02322155 -11.22265625 10.97265625 C-11.22781754 10.01537125 -11.23297882 9.05808624 -11.23829651 8.0717926 C-11.23837204 7.19095505 -11.23844757 6.31011749 -11.23852539 5.40258789 C-11.240746 4.62315323 -11.24296661 3.84371857 -11.24525452 3.04066467 C-10.92239653 -1.7668919 -3.60181793 0.0193127 0 0 Z M1.875 12.25 C1.875 14.56 1.875 16.87 1.875 19.25 C4.515 19.25 7.155 19.25 9.875 19.25 C10.55458603 16.85280568 10.55458603 16.85280568 10.875 14.25 C8.91866025 11.83878141 8.91866025 11.83878141 5.25 12.125 C3.579375 12.186875 3.579375 12.186875 1.875 12.25 Z " fill="#245410" transform="translate(390.125,187.75)"/>
<path d="M0 0 C-0.63348946 3.71415741 -2.28657418 6.19130299 -4.4375 9.25 C-5.05496094 10.14203125 -5.67242188 11.0340625 -6.30859375 11.953125 C-6.86675781 12.62859375 -7.42492187 13.3040625 -8 14 C-8.66 14 -9.32 14 -10 14 C-12.11208974 17.81575438 -12.11208974 17.81575438 -13 22 C-11.10770734 24.63624434 -11.10770734 24.63624434 -9 27 C-9 27.66 -9 28.32 -9 29 C-8.34 29 -7.68 29 -7 29 C-6.443125 30.051875 -5.88625 31.10375 -5.3125 32.1875 C-3.78962718 34.89482946 -2.53650878 36.45295733 -0.25 38.6875 C2 41 2 41 2 45 C-0.24893954 45.10823773 -2.49937575 45.18569645 -4.75 45.25 C-6.00296875 45.29640625 -7.2559375 45.3428125 -8.546875 45.390625 C-12 45 -12 45 -14.453125 43.109375 C-16 41 -16 41 -16 39 C-16.66 39 -17.32 39 -18 39 C-19.33333333 37 -20.66666667 35 -22 33 C-22.66 33 -23.32 33 -24 33 C-24.06058594 33.78246094 -24.12117187 34.56492188 -24.18359375 35.37109375 C-24.26738281 36.38300781 -24.35117187 37.39492187 -24.4375 38.4375 C-24.51871094 39.44683594 -24.59992187 40.45617187 -24.68359375 41.49609375 C-25 44 -25 44 -26 45 C-29.96 45 -33.92 45 -38 45 C-37.67 30.48 -37.34 15.96 -37 1 C-33.04 1 -29.08 1 -25 1 C-24.67 3.97 -24.34 6.94 -24 10 C-23.278125 9.278125 -22.55625 8.55625 -21.8125 7.8125 C-20.884375 6.884375 -19.95625 5.95625 -19 5 C-18.360625 4.071875 -17.72125 3.14375 -17.0625 2.1875 C-11.95582324 -1.46012626 -6.07467764 -0.36990595 0 0 Z " fill="#1E5109" transform="translate(586,188)"/>
<path d="M0 0 C1.50046875 0.00386719 1.50046875 0.00386719 3.03125 0.0078125 C4.0315625 0.00523437 5.031875 0.00265625 6.0625 0 C8.53125 0.1328125 8.53125 0.1328125 9.53125 1.1328125 C9.66543103 3.25385409 9.73486663 5.37904916 9.77734375 7.50390625 C9.81021484 8.80005859 9.84308594 10.09621094 9.87695312 11.43164062 C9.92441046 13.50328847 9.96883699 15.57490771 10.00805664 17.64672852 C10.04770885 19.64097353 10.09984536 21.63495806 10.15234375 23.62890625 C10.1773999 24.82700928 10.20245605 26.0251123 10.22827148 27.25952148 C10.24018595 30.26111996 10.24018595 30.26111996 12.53125 32.1328125 C15.57307893 32.38286636 15.57307893 32.38286636 18.53125 32.1328125 C20.41254925 30.25151325 19.7513992 27.01944538 19.8125 24.5078125 C19.83090942 23.84571777 19.84931885 23.18362305 19.86828613 22.50146484 C19.92719697 20.37867335 19.97994924 18.25580076 20.03125 16.1328125 C20.09871328 13.34096755 20.17238065 10.54939145 20.25 7.7578125 C20.28029297 6.51257813 20.31058594 5.26734375 20.34179688 3.984375 C20.53125 1.1328125 20.53125 1.1328125 21.53125 0.1328125 C23.36240883 0.03430079 25.19744933 0.00308621 27.03125 0.0078125 C28.0315625 0.00523437 29.031875 0.00265625 30.0625 0 C32.53125 0.1328125 32.53125 0.1328125 33.53125 1.1328125 C33.66941346 3.49931432 33.74434608 5.83455135 33.76953125 8.203125 C33.777603 8.91757782 33.78567474 9.63203064 33.79399109 10.36813354 C33.80785205 11.88634808 33.81856517 13.40459405 33.82641602 14.92285156 C33.84352744 17.2278328 33.88737853 19.5313412 33.93164062 21.8359375 C33.94177652 23.31248947 33.95028981 24.78905363 33.95703125 26.265625 C33.97453934 26.94819366 33.99204742 27.63076233 34.01008606 28.33401489 C33.98590292 33.76427548 32.47803414 36.74097406 29.53125 41.1328125 C24.72016656 45.63350346 19.58217259 46.5985808 13.1640625 46.4453125 C7.27992387 45.74689842 2.91846697 43.72811202 -0.96875 39.2578125 C-3.47475456 34.03696966 -3.59607525 28.96500602 -3.6015625 23.23828125 C-3.60285156 21.95373047 -3.60414063 20.66917969 -3.60546875 19.34570312 C-3.60337402 18.68546143 -3.6012793 18.02521973 -3.59912109 17.3449707 C-3.59371915 15.30868236 -3.59910919 13.2726101 -3.60546875 11.23632812 C-3.60417969 9.95822266 -3.60289062 8.68011719 -3.6015625 7.36328125 C-3.60043457 6.19176514 -3.59930664 5.02024902 -3.59814453 3.81323242 C-3.42295411 0.18414627 -3.42295411 0.18414627 0 0 Z " fill="#1C4E08" transform="translate(273.46875,187.8671875)"/>
<path d="M0 0 C1.79244141 0.01740234 1.79244141 0.01740234 3.62109375 0.03515625 C5.41740234 0.04869141 5.41740234 0.04869141 7.25 0.0625 C8.17683594 0.07410156 9.10367187 0.08570313 10.05859375 0.09765625 C11.01109088 2.47889908 11.96330323 4.86024997 12.9140625 7.2421875 C13.64038544 9.05427648 14.37158424 10.86442478 15.109375 12.671875 C17.00663991 17.33812113 18.7289863 22.00799764 20.265625 26.8046875 C21.42585073 30.15962595 22.85228134 33.39575968 24.2890625 36.640625 C25.05859375 39.09765625 25.05859375 39.09765625 25.05859375 45.09765625 C20.76859375 45.09765625 16.47859375 45.09765625 12.05859375 45.09765625 C11.39859375 43.11765625 10.73859375 41.13765625 10.05859375 39.09765625 C7.53383913 37.83527894 5.74658909 37.99909221 2.93359375 38.03515625 C2.02351563 38.04417969 1.1134375 38.05320313 0.17578125 38.0625 C-0.52289063 38.07410156 -1.2215625 38.08570313 -1.94140625 38.09765625 C-2.39515625 39.06703125 -2.84890625 40.03640625 -3.31640625 41.03515625 C-4.94140625 44.09765625 -4.94140625 44.09765625 -6.94140625 45.09765625 C-8.8152023 45.16799394 -10.69141727 45.18195845 -12.56640625 45.16015625 C-13.56929688 45.15113281 -14.5721875 45.14210937 -15.60546875 45.1328125 C-16.37632812 45.12121094 -17.1471875 45.10960937 -17.94140625 45.09765625 C-19.16532037 41.4259139 -18.57975045 40.31981186 -17.31640625 36.72265625 C-16.94 35.64757812 -16.56359375 34.5725 -16.17578125 33.46484375 C-14.60032293 29.16723278 -12.97459223 24.89220671 -11.30859375 20.62890625 C-10.29452229 18.00970453 -9.30017602 15.38725842 -8.32421875 12.75390625 C-8.05270996 12.02204102 -7.78120117 11.29017578 -7.50146484 10.53613281 C-6.96845794 9.0961467 -6.43747662 7.65540892 -5.90869141 6.21386719 C-3.64838467 0.12112831 -3.64838467 0.12112831 0 0 Z M3.05859375 21.09765625 C2.72859375 22.41765625 2.39859375 23.73765625 2.05859375 25.09765625 C3.04859375 24.76765625 4.03859375 24.43765625 5.05859375 24.09765625 C4.39859375 23.10765625 3.73859375 22.11765625 3.05859375 21.09765625 Z " fill="#1C4F07" transform="translate(482.94140625,187.90234375)"/>
<path d="M0 0 C1.21042969 -0.00128906 2.42085938 -0.00257813 3.66796875 -0.00390625 C4.94285156 -0.00003906 6.21773438 0.00382813 7.53125 0.0078125 C9.44357422 0.00201172 9.44357422 0.00201172 11.39453125 -0.00390625 C13.21017578 -0.00197266 13.21017578 -0.00197266 15.0625 0 C16.18205078 0.00112793 17.30160156 0.00225586 18.45507812 0.00341797 C21.03125 0.1328125 21.03125 0.1328125 22.03125 1.1328125 C22.12948937 2.79710301 22.16098631 4.46563181 22.15625 6.1328125 C22.16011719 7.4940625 22.16011719 7.4940625 22.1640625 8.8828125 C22.03125 11.1328125 22.03125 11.1328125 21.03125 12.1328125 C18.50075598 12.20594817 15.99820163 12.22528777 13.46875 12.1953125 C12.75783203 12.19080078 12.04691406 12.18628906 11.31445312 12.18164062 C9.55334987 12.16982114 7.79228964 12.15188513 6.03125 12.1328125 C6.03125 13.4528125 6.03125 14.7728125 6.03125 16.1328125 C10.98125 16.1328125 15.93125 16.1328125 21.03125 16.1328125 C21.03125 20.0928125 21.03125 24.0528125 21.03125 28.1328125 C16.08125 28.4628125 11.13125 28.7928125 6.03125 29.1328125 C6.03125 30.4528125 6.03125 31.7728125 6.03125 33.1328125 C11.31125 33.1328125 16.59125 33.1328125 22.03125 33.1328125 C22.03125 37.0928125 22.03125 41.0528125 22.03125 45.1328125 C18.06194011 45.15747131 14.09265966 45.17565273 10.12329102 45.18774414 C8.77204614 45.19278307 7.42080674 45.19961427 6.06958008 45.20825195 C4.13104566 45.22033669 2.192472 45.22551078 0.25390625 45.23046875 C-1.49780884 45.23832397 -1.49780884 45.23832397 -3.28491211 45.24633789 C-5.96875 45.1328125 -5.96875 45.1328125 -6.96875 44.1328125 C-7.06660341 42.78736923 -7.09672985 41.43688687 -7.09814453 40.08789062 C-7.10129669 39.23030151 -7.10444885 38.3727124 -7.10769653 37.48913574 C-7.1056723 36.55686157 -7.10364807 35.6245874 -7.1015625 34.6640625 C-7.10251923 33.71341919 -7.10347595 32.76277588 -7.10446167 31.7833252 C-7.10514357 29.76912368 -7.10328862 27.75491998 -7.09912109 25.74072266 C-7.09377298 22.64610895 -7.09906577 19.5516404 -7.10546875 16.45703125 C-7.10480797 14.50520801 -7.10352681 12.55338486 -7.1015625 10.6015625 C-7.10358673 9.66928833 -7.10561096 8.73701416 -7.10769653 7.77648926 C-7.10454437 6.91890015 -7.10139221 6.06131104 -7.09814453 5.17773438 C-7.09734894 4.41908081 -7.09655334 3.66042725 -7.09573364 2.87878418 C-6.80234136 -1.15523632 -3.27397353 0.00329848 0 0 Z " fill="#21530D" transform="translate(352.96875,187.8671875)"/>
<path d="M0 0 C1.16781006 0.00523682 2.33562012 0.01047363 3.53881836 0.01586914 C4.79887695 0.0190918 6.05893555 0.02231445 7.35717773 0.02563477 C8.6976732 0.03399136 10.03816799 0.04245632 11.37866211 0.05102539 C12.72306153 0.05603879 14.06746271 0.06060197 15.41186523 0.06469727 C18.71334151 0.07653051 22.01473014 0.09301568 25.31616211 0.11352539 C25.3430349 1.92594591 25.36249926 3.73847772 25.37866211 5.55102539 C25.39026367 6.56036133 25.40186523 7.56969727 25.41381836 8.60961914 C25.31616211 11.11352539 25.31616211 11.11352539 24.31616211 12.11352539 C21.78566809 12.18666106 19.28311374 12.20600066 16.75366211 12.17602539 C16.04274414 12.17151367 15.33182617 12.16700195 14.59936523 12.16235352 C12.83826198 12.15053403 11.07720175 12.13259802 9.31616211 12.11352539 C9.31616211 13.43352539 9.31616211 14.75352539 9.31616211 16.11352539 C13.93616211 16.11352539 18.55616211 16.11352539 23.31616211 16.11352539 C23.31616211 20.07352539 23.31616211 24.03352539 23.31616211 28.11352539 C20.67157832 29.43581729 18.6385491 29.21029733 15.69116211 29.17602539 C14.68827148 29.16700195 13.68538086 29.15797852 12.65209961 29.14868164 C11.88124023 29.13708008 11.11038086 29.12547852 10.31616211 29.11352539 C9.98616211 30.43352539 9.65616211 31.75352539 9.31616211 33.11352539 C10.45956055 33.10192383 11.60295898 33.09032227 12.78100586 33.07836914 C14.27188965 33.06899251 15.7627752 33.05989218 17.25366211 33.05102539 C18.0084082 33.04264648 18.7631543 33.03426758 19.54077148 33.02563477 C21.46610524 33.01700098 23.39151792 33.06128206 25.31616211 33.11352539 C26.31616211 34.11352539 26.31616211 34.11352539 26.44897461 36.10961914 C26.44639648 36.9152832 26.44381836 37.72094727 26.44116211 38.55102539 C26.4450293 39.7556543 26.4450293 39.7556543 26.44897461 40.98461914 C26.31616211 43.11352539 26.31616211 43.11352539 25.31616211 45.11352539 C15.74616211 45.11352539 6.17616211 45.11352539 -3.68383789 45.11352539 C-3.70674302 38.86551453 -3.72667128 32.61764824 -3.73876953 26.36962891 C-3.74381087 24.24234525 -3.7506438 22.11506508 -3.75927734 19.98779297 C-3.77135168 16.93724713 -3.77706803 13.88674694 -3.78149414 10.83618164 C-3.78665543 9.87889664 -3.79181671 8.92161163 -3.7971344 7.93531799 C-3.79720993 7.05448044 -3.79728546 6.17364288 -3.79736328 5.26611328 C-3.79958389 4.48667862 -3.8018045 3.70724396 -3.80409241 2.90419006 C-3.60514564 -0.05825124 -2.98213763 0.12614336 0 0 Z " fill="#21540D" transform="translate(592.683837890625,187.886474609375)"/>
<path d="M0 0 C0 0.66 0 1.32 0 2 C0.66 2 1.32 2 2 2 C2.66 3.65 3.32 5.3 4 7 C0.7 9.31 -2.6 11.62 -6 14 C-4.72125 14.94875 -3.4425 15.8975 -2.125 16.875 C0.07601757 18.50801304 2.05967472 20.05967472 4 22 C4.65081401 26.95988785 5.09584041 32.44617449 3.08984375 37.12109375 C0.33163698 40.6774954 -2.6723952 42.18347079 -7 43 C-14.84828488 43.7146617 -20.61927241 42.79277496 -26.875 37.625 C-29.05504603 34.93200196 -29.70802098 33.40642186 -30 30 C-23.76559546 25.96597353 -23.76559546 25.96597353 -20.1875 26.125 C-18 27 -18 27 -16 29 C-13.67724823 29.40047444 -11.34260643 29.7397104 -9 30 C-9.33 29.01 -9.66 28.02 -10 27 C-12.61810867 25.7056977 -12.61810867 25.7056977 -15.75 24.625 C-21.33674876 22.4261726 -25.23179994 20.53640013 -28 15 C-28.53998915 10.07813166 -28.50267128 6.10587682 -26.4375 1.5625 C-18.39712605 -6.89020081 -9.1938282 -4.76717018 0 0 Z M-14 8 C-14.99 9.485 -14.99 9.485 -16 11 C-12.77208445 13.1519437 -11.71599191 13.20086443 -8 13 C-8.71563266 10.9837767 -8.71563266 10.9837767 -10 9 C-12.05000871 8.19471111 -12.05000871 8.19471111 -14 8 Z " fill="#1E510A" transform="translate(264,191)"/>
<path d="M0 0 C1.25200195 -0.0309375 1.25200195 -0.0309375 2.52929688 -0.0625 C8.35489216 -0.09882483 12.65174103 0.7474504 17.9375 3.25 C22.17601793 8.46663745 23.38214476 12.58032867 22.9375 19.25 C21.35866357 23.90756746 19.76880567 27.15000775 15.9375 30.25 C12.703125 31.078125 12.703125 31.078125 9.1875 31.5 C8.01703125 31.64953125 6.8465625 31.7990625 5.640625 31.953125 C4.30257813 32.10007813 4.30257813 32.10007813 2.9375 32.25 C2.87691406 33.10464844 2.81632812 33.95929688 2.75390625 34.83984375 C2.67011719 35.94457031 2.58632813 37.04929688 2.5 38.1875 C2.41878906 39.28964844 2.33757812 40.39179688 2.25390625 41.52734375 C1.9375 44.25 1.9375 44.25 0.9375 45.25 C-0.91537502 45.32226502 -2.77083878 45.3338122 -4.625 45.3125 C-5.63691406 45.30347656 -6.64882813 45.29445312 -7.69140625 45.28515625 C-8.47386719 45.27355469 -9.25632812 45.26195312 -10.0625 45.25 C-10.08777124 39.00204325 -10.10533344 32.75409959 -10.11743164 26.50610352 C-10.12247298 24.37881986 -10.12930591 22.25153969 -10.13793945 20.12426758 C-10.15001379 17.07372174 -10.15573014 14.02322155 -10.16015625 10.97265625 C-10.16531754 10.01537125 -10.17047882 9.05808624 -10.17579651 8.0717926 C-10.17587204 7.19095505 -10.17594757 6.31011749 -10.17602539 5.40258789 C-10.178246 4.62315323 -10.18046661 3.84371857 -10.18275452 3.04066467 C-9.86251297 -1.72793145 -3.60581802 0.02157558 0 0 Z M1.9375 13.25 C1.89669217 15.24958364 1.89495644 17.25045254 1.9375 19.25 C6.1484755 19.63428348 6.1484755 19.63428348 9.8125 17.875 C11.12723666 16.30533986 11.12723666 16.30533986 10.9375 14.25 C8.30178024 12.49285349 4.66069072 10.52680928 1.9375 13.25 Z " fill="#20530C" transform="translate(321.0625,187.75)"/>
<path d="M0 0 C0.71353638 0.00202423 1.42707275 0.00404846 2.16223145 0.00613403 C2.89091431 0.00517731 3.61959717 0.00422058 4.37036133 0.00323486 C5.91377855 0.00255318 7.45719861 0.00440666 9.00061035 0.00857544 C11.37095544 0.01392391 13.74111104 0.00863011 16.1114502 0.00222778 C17.60754437 0.00288857 19.10363842 0.00416973 20.59973145 0.00613403 C21.31326782 0.0041098 22.0268042 0.00208557 22.76196289 0 C27.76602953 0.02399462 27.76602953 0.02399462 28.88098145 1.13894653 C28.97922082 2.80323705 29.01071775 4.47176584 29.00598145 6.13894653 C29.00984863 7.50019653 29.00984863 7.50019653 29.01379395 8.88894653 C28.88098145 11.13894653 28.88098145 11.13894653 27.88098145 12.13894653 C26.19489179 12.21100165 24.50597485 12.22280721 22.81848145 12.20144653 C21.89937988 12.1924231 20.98027832 12.18339966 20.0333252 12.17410278 C19.32305176 12.16250122 18.61277832 12.15089966 17.88098145 12.13894653 C17.88883667 13.47856445 17.88883667 13.47856445 17.89685059 14.84524536 C17.9138993 18.16068161 17.92643492 21.47607124 17.93591309 24.79153442 C17.94093986 26.22611222 17.94776224 27.66068489 17.9564209 29.09524536 C17.96855896 31.15800236 17.97422631 33.22069157 17.9786377 35.28347778 C17.98649292 37.14516602 17.98649292 37.14516602 17.99450684 39.04446411 C17.88098145 42.13894653 17.88098145 42.13894653 16.88098145 45.13894653 C12.92098145 45.13894653 8.96098145 45.13894653 4.88098145 45.13894653 C4.88098145 34.24894653 4.88098145 23.35894653 4.88098145 12.13894653 C1.58098145 12.13894653 -1.71901855 12.13894653 -5.11901855 12.13894653 C-6.11901855 11.13894653 -6.11901855 11.13894653 -6.25183105 8.88894653 C-6.24925293 7.98144653 -6.2466748 7.07394653 -6.24401855 6.13894653 C-6.24659668 5.23144653 -6.2491748 4.32394653 -6.25183105 3.38894653 C-6.00028718 -0.87250261 -3.72471325 0.01786009 0 0 Z " fill="#1A5205" transform="translate(626.1190185546875,187.86105346679688)"/>
<path d="M0 0 C8.26991808 -0.51154132 14.62394831 0.11314146 22 4 C22.97259766 4.50853516 22.97259766 4.50853516 23.96484375 5.02734375 C29.72247028 8.56759113 33.55108721 14.609881 35.65234375 20.9765625 C37.27685782 30.43159945 35.78966916 39.10251027 30.46484375 47.08203125 C25.4008714 53.71245905 19.11621109 57.16117093 11 59 C6.97121641 59.28910253 3.02926368 59.25314746 -1 59 C-1 58.67 -1 58.34 -1 58 C1.97 58 4.94 58 8 58 C8 57.34 8 56.68 8 56 C9.3303125 55.505 9.3303125 55.505 10.6875 55 C14.54043384 52.67370032 15.8280256 50.51815264 17.921875 46.64453125 C18.27765625 46.10183594 18.6334375 45.55914062 19 45 C19.66 45 20.32 45 21 45 C22.74637006 33.86689085 23.54869883 21.40598017 18.5625 11 C16.98200022 8.76109378 16.98200022 8.76109378 14 7 C14 6.34 14 5.68 14 5 C9.47618873 2.95698846 4.83628305 1.99043705 0 1 C0 0.67 0 0.34 0 0 Z " fill="#69AF1B" transform="translate(106,219)"/>
<path d="M0 0 C3.0625 -0.25 3.0625 -0.25 6 0 C10.01070479 4.01070479 8.13169281 17.18873194 8.1875 22.9375 C8.20047119 23.64648438 8.21344238 24.35546875 8.22680664 25.0859375 C8.2345062 29.43054443 7.74056357 33.00586466 6 37 C4 37.9375 4 37.9375 2 38 C1.34 37.67 0.68 37.34 0 37 C0.33 36.34 0.66 35.68 1 35 C-0.32 34.34 -1.64 33.68 -3 33 C-2.90639526 28.78207923 -2.80028691 24.56471417 -2.68261719 20.34741211 C-2.64435134 18.91292932 -2.60949419 17.47835135 -2.578125 16.04370117 C-2.53242138 13.98061122 -2.47443807 11.91817505 -2.4140625 9.85546875 C-2.3826416 8.61434326 -2.3512207 7.37321777 -2.31884766 6.09448242 C-2 3 -2 3 0 0 Z " fill="#1A4E04" transform="translate(298,190)"/>
<path d="M0 0 C11.77774574 -0.3322875 23.14484519 0.28690711 33.5 6.5 C33.995 6.995 34.49 7.49 35 8 C35 8.99 35 9.98 35 11 C10.43489885 11.78585039 10.43489885 11.78585039 2.25 5.5 C0 3 0 3 0 0 Z " fill="#64A81C" transform="translate(67,93)"/>
<path d="M0 0 C0 0.99 0 1.98 0 3 C-0.66 3 -1.32 3 -2 3 C-2 3.66 -2 4.32 -2 5 C-11.52979121 11.78953989 -23.81338599 11.41775737 -35 11 C-35 10.01 -35 9.02 -35 8 C-33.35 7.34 -31.7 6.68 -30 6 C-30 5.34 -30 4.68 -30 4 C-19.63804547 0.37331591 -10.85582374 -0.50754501 0 0 Z " fill="#6AB01A" transform="translate(160,93)"/>
<path d="M0 0 C0 0.66 0 1.32 0 2 C0.66 2 1.32 2 2 2 C2.66 3.65 3.32 5.3 4 7 C2.75945552 8.01170618 1.5071298 9.00897797 0.25 10 C-0.44609375 10.556875 -1.1421875 11.11375 -1.859375 11.6875 C-4 13 -4 13 -8 13 C-10.3125 10.75 -10.3125 10.75 -12 8 C-11.75 5.8125 -11.75 5.8125 -11 4 C-11 3.34 -11 2.68 -11 2 C-10.67 1.01 -10.34 0.02 -10 -1 C-14.455 -0.505 -14.455 -0.505 -19 0 C-19 0.33 -19 0.66 -19 1 C-20.65 1 -22.3 1 -24 1 C-24.33 5.29 -24.66 9.58 -25 14 C-25.99 14.33 -26.98 14.66 -28 15 C-28.35230537 10.04815227 -28.5204295 6.14494491 -26.4375 1.5625 C-18.39712605 -6.89020081 -9.1938282 -4.76717018 0 0 Z " fill="#245411" transform="translate(264,191)"/>
<path d="M0 0 C1.12591553 0.00523682 2.25183105 0.01047363 3.41186523 0.01586914 C4.62680664 0.0190918 5.84174805 0.02231445 7.09350586 0.02563477 C8.37290039 0.03401367 9.65229492 0.04239258 10.97045898 0.05102539 C12.2537207 0.05553711 13.53698242 0.06004883 14.85913086 0.06469727 C18.04211921 0.07652994 21.22501661 0.09301471 24.40795898 0.11352539 C23.76858398 0.40227539 23.12920898 0.69102539 22.47045898 0.98852539 C20.25589819 1.9417599 20.25589819 1.9417599 19.40795898 4.11352539 C18.13178711 4.02973633 16.85561523 3.94594727 15.54077148 3.85961914 C13.87151864 3.75646307 12.20224678 3.6536144 10.53295898 3.55102539 C9.69120117 3.49495117 8.84944336 3.43887695 7.98217773 3.38110352 C7.17651367 3.33276367 6.37084961 3.28442383 5.54077148 3.23461914 C4.79714355 3.18748779 4.05351562 3.14035645 3.28735352 3.09179688 C1.31548821 2.97774264 1.31548821 2.97774264 -0.59204102 4.11352539 C-0.59204102 16.98352539 -0.59204102 29.85352539 -0.59204102 43.11352539 C7.65795898 43.44352539 15.90795898 43.77352539 24.40795898 44.11352539 C24.40795898 40.81352539 24.40795898 37.51352539 24.40795898 34.11352539 C19.12795898 34.11352539 13.84795898 34.11352539 8.40795898 34.11352539 C8.40795898 32.13352539 8.40795898 30.15352539 8.40795898 28.11352539 C9.39795898 28.44352539 10.38795898 28.77352539 11.40795898 29.11352539 C10.74795898 29.11352539 10.08795898 29.11352539 9.40795898 29.11352539 C9.40795898 30.43352539 9.40795898 31.75352539 9.40795898 33.11352539 C14.68795898 33.11352539 19.96795898 33.11352539 25.40795898 33.11352539 C25.40795898 37.07352539 25.40795898 41.03352539 25.40795898 45.11352539 C21.43864909 45.1381842 17.46936864 45.15636562 13.5 45.16845703 C12.14875512 45.17349596 10.79751573 45.18032716 9.44628906 45.18896484 C7.50775464 45.20104958 5.56918098 45.20622367 3.63061523 45.21118164 C1.87890015 45.21903687 1.87890015 45.21903687 0.09179688 45.22705078 C-2.59204102 45.11352539 -2.59204102 45.11352539 -3.59204102 44.11352539 C-3.68989443 42.76808212 -3.72002087 41.41759976 -3.72143555 40.06860352 C-3.72458771 39.2110144 -3.72773987 38.35342529 -3.73098755 37.46984863 C-3.72896332 36.53757446 -3.72693909 35.60530029 -3.72485352 34.64477539 C-3.72581024 33.69413208 -3.72676697 32.74348877 -3.72775269 31.76403809 C-3.72843458 29.74983657 -3.72657964 27.73563287 -3.72241211 25.72143555 C-3.71706399 22.62682185 -3.72235679 19.53235329 -3.72875977 16.43774414 C-3.72809899 14.4859209 -3.72681783 12.53409775 -3.72485352 10.58227539 C-3.72687775 9.65000122 -3.72890198 8.71772705 -3.73098755 7.75720215 C-3.72783539 6.89961304 -3.72468323 6.04202393 -3.72143555 5.15844727 C-3.72063995 4.3997937 -3.71984436 3.64114014 -3.71902466 2.85949707 C-3.50945006 -0.02206558 -2.89326505 0.12671831 0 0 Z " fill="#446336" transform="translate(349.592041015625,187.886474609375)"/>
<path d="M0 0 C0.33 0 0.66 0 1 0 C1.33 13.53 1.66 27.06 2 41 C10.25 41.33 18.5 41.66 27 42 C26.67 40.02 26.34 38.04 26 36 C24.7625 35.835 23.525 35.67 22.25 35.5 C21.20585938 35.36078125 21.20585938 35.36078125 20.140625 35.21875 C17.69541605 34.93222643 17.69541605 34.93222643 14 35 C14 34.34 14 33.68 14 33 C13.34 33 12.68 33 12 33 C12 31.02 12 29.04 12 27 C12.66 27.33 13.32 27.66 14 28 C13.67 29.32 13.34 30.64 13 32 C14.14339844 31.98839844 15.28679688 31.97679687 16.46484375 31.96484375 C17.95572754 31.95546712 19.44661309 31.94636679 20.9375 31.9375 C21.69224609 31.92912109 22.44699219 31.92074219 23.22460938 31.91210938 C25.14994313 31.90347559 27.07535581 31.94775667 29 32 C30 33 30 33 30.1328125 34.99609375 C30.13023437 35.80175781 30.12765625 36.60742188 30.125 37.4375 C30.12886719 38.64212891 30.12886719 38.64212891 30.1328125 39.87109375 C30 42 30 42 29 44 C19.43 44 9.86 44 0 44 C0 29.48 0 14.96 0 0 Z " fill="#6A865F" transform="translate(589,189)"/>
<path d="M0 0 C1.50046875 0.00386719 1.50046875 0.00386719 3.03125 0.0078125 C4.0315625 0.00523437 5.031875 0.00265625 6.0625 0 C8.53125 0.1328125 8.53125 0.1328125 9.53125 1.1328125 C9.64450718 3.54604691 9.69542025 5.92958654 9.69921875 8.34375 C9.70254715 9.06768951 9.70587555 9.79162903 9.70930481 10.5375061 C9.71437739 12.07252363 9.71671303 13.60755222 9.71655273 15.14257812 C9.71873445 17.49107099 9.73687287 19.83909065 9.75585938 22.1875 C9.75879419 23.67708172 9.7607784 25.16666568 9.76171875 26.65625 C9.76890427 27.35946381 9.77608978 28.06267761 9.78349304 28.78720093 C9.76627296 32.46575939 9.62985684 33.98490224 7.53125 37.1328125 C7.53648682 36.56473877 7.54172363 35.99666504 7.54711914 35.41137695 C7.63346038 24.59904991 7.64986117 13.89944505 6.53125 3.1328125 C4.55125 3.1328125 2.57125 3.1328125 0.53125 3.1328125 C-0.83277394 5.86086037 -0.64896962 8.11389052 -0.71484375 11.1640625 C-0.74771484 12.36675781 -0.78058594 13.56945312 -0.81445312 14.80859375 C-0.87564886 17.35798219 -0.93294093 19.90746733 -0.98632812 22.45703125 C-1.02048828 23.65972656 -1.05464844 24.86242187 -1.08984375 26.1015625 C-1.1148999 27.20951172 -1.13995605 28.31746094 -1.16577148 29.45898438 C-1.46875 32.1328125 -1.46875 32.1328125 -3.46875 34.1328125 C-3.49340288 29.45141996 -3.51158739 24.77006491 -3.52368164 20.08862305 C-3.52872157 18.49486636 -3.5355535 16.90111431 -3.54418945 15.30737305 C-3.55626999 13.02130997 -3.56198155 10.73530783 -3.56640625 8.44921875 C-3.57156754 7.73254532 -3.57672882 7.01587189 -3.58204651 6.27748108 C-3.58224263 4.56217578 -3.53067007 2.84699984 -3.46875 1.1328125 C-2.46875 0.1328125 -2.46875 0.1328125 0 0 Z " fill="#749169" transform="translate(297.46875,187.8671875)"/>
<path d="M0 0 C3.60525755 0.16387534 5.78349495 0.86821432 8.875 2.75 C12.14812819 7.75596076 11.92241497 13.17341209 11 19 C9.46875 20.8984375 9.46875 20.8984375 8 22 C8.14133499 20.22880197 8.28823208 18.45804713 8.4375 16.6875 C8.51871094 15.70136719 8.59992188 14.71523437 8.68359375 13.69921875 C9 11 9 11 10 8 C9.21625 8 8.4325 8 7.625 8 C6.08333333 8 4.54166667 8 3 8 C2.71125 8.639375 2.4225 9.27875 2.125 9.9375 C1 12 1 12 -1 13 C-1 13.66 -1 14.32 -1 15 C-3.97 15 -6.94 15 -10 15 C-9.67 14.34 -9.34 13.68 -9 13 C-6.69 13.33 -4.38 13.66 -2 14 C-2.33 13.01 -2.66 12.02 -3 11 C-6.00847418 9.77479736 -6.00847418 9.77479736 -9 9 C-9 8.67 -9 8.34 -9 8 C-7.02 8 -5.04 8 -3 8 C-2.690625 6.865625 -2.38125 5.73125 -2.0625 4.5625 C-1 1 -1 1 0 0 Z " fill="#255413" transform="translate(257,207)"/>
<path d="M0 0 C2.17207891 6.78774661 0.68753161 13.29744748 -0.9375 20 C-2.98328555 28.61687764 -4.17245621 36.75407854 -4.125 45.625 C-4.12306641 46.49930664 -4.12113281 47.37361328 -4.11914062 48.27441406 C-4.0731531 55.22108581 -3.70648709 62.08651924 -3 69 C-5.30039124 65.54941314 -5.4738275 63.05904498 -6 59 C-6.33 58.67 -6.66 58.34 -7 58 C-8.13846717 42.30446019 -6.74545083 26.96090542 -2.73046875 11.77734375 C-1.70410463 7.87496467 -0.85435746 3.9431883 0 0 Z " fill="#517547" transform="translate(27,204)"/>
<path d="M0 0 C0 3.3 0 6.6 0 10 C-5.28 10 -10.56 10 -16 10 C-16 8.68 -16 7.36 -16 6 C-14.68 5.67 -13.36 5.34 -12 5 C-12.33 4.01 -12.66 3.02 -13 2 C-11.20873548 1.66451233 -9.41697413 1.33167645 -7.625 1 C-6.62726562 0.814375 -5.62953125 0.62875 -4.6015625 0.4375 C-2 0 -2 0 0 0 Z " fill="#194C05" transform="translate(617,189)"/>
<path d="M0 0 C1.98 0 3.96 0 6 0 C4.68 0.33 3.36 0.66 2 1 C2 14.53 2 28.06 2 42 C4.64 42 7.28 42 10 42 C10 39.36 10 36.72 10 34 C10.33 34 10.66 34 11 34 C11 37.3 11 40.6 11 44 C7.37 44 3.74 44 0 44 C0 29.48 0 14.96 0 0 Z " fill="#40612F" transform="translate(311,189)"/>
<path d="M0 0 C1.48679725 2.97359449 1.11112605 5.66299179 1.09765625 8.9765625 C1.0962413 9.66181 1.09482635 10.3470575 1.09336853 11.05307007 C1.08776675 13.24375761 1.07521406 15.4343433 1.0625 17.625 C1.05748522 19.10937352 1.05292228 20.59374865 1.04882812 22.078125 C1.03779677 25.71878315 1.02053099 29.35938164 1 33 C3.31 33 5.62 33 8 33 C8 32.34 8 31.68 8 31 C8.66 31 9.32 31 10 31 C10.33 30.34 10.66 29.68 11 29 C12 32 12 32 11 35 C7.04 35 3.08 35 -1 35 C-1 24.11 -1 13.22 -1 2 C-4.3 2 -7.6 2 -11 2 C-11 1.67 -11 1.34 -11 1 C-3.375 0 -3.375 0 0 0 Z " fill="#4D6E3E" transform="translate(632,198)"/>
<path d="M0 0 C2.31 0.66 4.62 1.32 7 2 C6.34 6.62 5.68 11.24 5 16 C3.02 16.33 1.04 16.66 -1 17 C-1 16.34 -1 15.68 -1 15 C-0.34 15 0.32 15 1 15 C1 14.34 1 13.68 1 13 C-0.32 12.34 -1.64 11.68 -3 11 C-3.36923077 4.6 -3.36923077 4.6 -1.5 1.5625 C-1.005 1.046875 -0.51 0.53125 0 0 Z " fill="#184D03" transform="translate(260,213)"/>
<path d="M0 0 C1.50046875 0.00386719 1.50046875 0.00386719 3.03125 0.0078125 C4.0315625 0.00523437 5.031875 0.00265625 6.0625 0 C8.53125 0.1328125 8.53125 0.1328125 9.53125 1.1328125 C9.66543103 3.25385409 9.73486663 5.37904916 9.77734375 7.50390625 C9.81021484 8.80005859 9.84308594 10.09621094 9.87695312 11.43164062 C9.92441046 13.50328847 9.96883699 15.57490771 10.00805664 17.64672852 C10.04770885 19.64097353 10.09984536 21.63495806 10.15234375 23.62890625 C10.1773999 24.82700928 10.20245605 26.0251123 10.22827148 27.25952148 C10.24018595 30.26111996 10.24018595 30.26111996 12.53125 32.1328125 C14.51946313 32.53045513 16.52069339 32.87056599 18.53125 33.1328125 C18.53125 33.4628125 18.53125 33.7928125 18.53125 34.1328125 C12.08269261 34.49782518 12.08269261 34.49782518 9.83276367 33.00854492 C7.96450559 30.31602441 8.09597689 28.19017805 8.01953125 24.93359375 C7.98408203 23.72509766 7.94863281 22.51660156 7.91210938 21.27148438 C7.88955078 20.00884766 7.86699219 18.74621094 7.84375 17.4453125 C7.80958984 16.17107422 7.77542969 14.89683594 7.74023438 13.58398438 C7.65764216 10.43368147 7.58852665 7.28366093 7.53125 4.1328125 C3.07625 3.1428125 3.07625 3.1428125 -1.46875 2.1328125 C-1.79875 11.3728125 -2.12875 20.6128125 -2.46875 30.1328125 C-2.79875 30.1328125 -3.12875 30.1328125 -3.46875 30.1328125 C-3.49340746 26.0210869 -3.51158959 21.90938972 -3.52368164 17.79760742 C-3.5287208 16.39786022 -3.53555216 14.9981183 -3.54418945 13.59838867 C-3.5562732 11.59035473 -3.56144807 9.58228293 -3.56640625 7.57421875 C-3.57164307 6.36451416 -3.57687988 5.15480957 -3.58227539 3.90844727 C-3.42996432 0.1845234 -3.42996432 0.1845234 0 0 Z " fill="#637E56" transform="translate(273.46875,187.8671875)"/>
<path d="M0 0 C0 0.66 0 1.32 0 2 C1.32 2.66 2.64 3.32 4 4 C3 7 3 7 2 8 C3.32 8.66 4.64 9.32 6 10 C5.67 10.66 5.34 11.32 5 12 C2.71484375 12.4140625 2.71484375 12.4140625 -0.0625 12.625 C-0.98160156 12.69976562 -1.90070313 12.77453125 -2.84765625 12.8515625 C-3.91306641 12.92503906 -3.91306641 12.92503906 -5 13 C-5.144375 12.030625 -5.28875 11.06125 -5.4375 10.0625 C-5.67562341 7.13513227 -5.67562341 7.13513227 -7 6 C-7 5.01 -7 4.02 -7 3 C-4.46815512 0.64276511 -3.52809907 0 0 0 Z " fill="#174C02" transform="translate(406,218)"/>
<path d="M0 0 C0.77943466 0.00222061 1.55886932 0.00444122 2.36192322 0.00672913 C3.68317955 0.00684242 3.68317955 0.00684242 5.03112793 0.00695801 C5.98841293 0.01211929 6.94569794 0.01728058 7.93199158 0.02259827 C9.39480812 0.02472069 9.39480812 0.02472069 10.88717651 0.02688599 C14.01542675 0.03250319 17.14360656 0.04505859 20.27183533 0.05775452 C22.38706867 0.0627673 24.50230313 0.06733059 26.61753845 0.07142639 C31.81482829 0.0824782 37.01207678 0.09923305 42.20933533 0.12025452 C42.20933533 0.45025452 42.20933533 0.78025452 42.20933533 1.12025452 C28.34933533 1.12025452 14.48933533 1.12025452 0.20933533 1.12025452 C-0.12066467 8.05025452 -0.45066467 14.98025452 -0.79066467 22.12025452 C-0.13066467 22.12025452 0.52933533 22.12025452 1.20933533 22.12025452 C0.87933533 24.43025452 0.54933533 26.74025452 0.20933533 29.12025452 C-4.20345449 21.03013986 -3.18066339 10.1131661 -2.79066467 1.12025452 C-1.79066467 0.12025452 -1.79066467 0.12025452 0 0 Z " fill="#58744B" transform="translate(47.79066467285156,73.87974548339844)"/>
<path d="M0 0 C1.65322266 0.01740234 1.65322266 0.01740234 3.33984375 0.03515625 C4.99693359 0.04869141 4.99693359 0.04869141 6.6875 0.0625 C7.54214844 0.07410156 8.39679687 0.08570313 9.27734375 0.09765625 C9.27734375 0.42765625 9.27734375 0.75765625 9.27734375 1.09765625 C5.64734375 1.09765625 2.01734375 1.09765625 -1.72265625 1.09765625 C-1.39265625 2.08765625 -1.06265625 3.07765625 -0.72265625 4.09765625 C-0.69495983 6.18100242 -0.73342395 8.26548242 -0.80859375 10.34765625 C-0.85242188 11.59675781 -0.89625 12.84585938 -0.94140625 14.1328125 C-0.99296875 15.44121094 -1.04453125 16.74960938 -1.09765625 18.09765625 C-1.14148438 19.37511719 -1.1853125 20.65257812 -1.23046875 21.96875 C-1.50331426 29.37347395 -1.95081261 36.72779443 -2.72265625 44.09765625 C-3.38265625 43.76765625 -4.04265625 43.43765625 -4.72265625 43.09765625 C-4.60473295 37.13437726 -4.48050925 31.17127627 -4.3503418 25.20825195 C-4.30692384 23.17801521 -4.26525399 21.14774033 -4.2253418 19.11743164 C-4.16780479 16.20577474 -4.10406347 13.29431111 -4.0390625 10.3828125 C-4.02235001 9.46927505 -4.00563751 8.55573761 -3.98841858 7.61451721 C-3.81103093 0.13669408 -3.81103093 0.13669408 0 0 Z " fill="#9BAC93" transform="translate(550.72265625,187.90234375)"/>
<path d="M0 0 C9.41002278 -0.18451025 9.41002278 -0.18451025 14 1 C14 4.3 14 7.6 14 11 C11.36 11 8.72 11 6 11 C6 10.67 6 10.34 6 10 C7.98 9.67 9.96 9.34 12 9 C12 8.01 12 7.02 12 6 C8.37 6.33 4.74 6.66 1 7 C0.67 4.69 0.34 2.38 0 0 Z " fill="#1A4B05" transform="translate(601,204)"/>
<path d="M0 0 C2.97 0 5.94 0 9 0 C9 3.3 9 6.6 9 10 C6.36 10 3.72 10 1 10 C0.83266843 8.5209084 0.66615314 7.04172444 0.5 5.5625 C0.4071875 4.73878906 0.314375 3.91507813 0.21875 3.06640625 C0 1 0 1 0 0 Z " fill="#184806" transform="translate(364,205)"/>
<path d="M0 0 C-0.33 0.66 -0.66 1.32 -1 2 C-1.99 1.67 -2.98 1.34 -4 1 C-4 0.34 -4 -0.32 -4 -1 C-4.99 -0.67 -5.98 -0.34 -7 0 C-7.66 -0.33 -8.32 -0.66 -9 -1 C-10.71233688 -0.9129796 -12.42175406 -0.75902838 -14.125 -0.5625 C-15.03507813 -0.46066406 -15.94515625 -0.35882813 -16.8828125 -0.25390625 C-17.93082031 -0.12822266 -17.93082031 -0.12822266 -19 0 C-19 0.33 -19 0.66 -19 1 C-20.65 1 -22.3 1 -24 1 C-24.33 5.29 -24.66 9.58 -25 14 C-25.99 14.33 -26.98 14.66 -28 15 C-28.35230537 10.04815227 -28.5204295 6.14494491 -26.4375 1.5625 C-18.39712605 -6.89020081 -9.1938282 -4.76717018 0 0 Z " fill="#6B865F" transform="translate(264,191)"/>
<path d="M0 0 C0.33 0.66 0.66 1.32 1 2 C0.0625 4.625 0.0625 4.625 -1 7 C-1.66 7 -2.32 7 -3 7 C-3.1546875 8.0828125 -3.1546875 8.0828125 -3.3125 9.1875 C-4.06718283 12.27483884 -5.3227585 14.31641361 -7 17 C-7.33 17.9075 -7.66 18.815 -8 19.75 C-8.33 20.4925 -8.66 21.235 -9 22 C-9.99 22.33 -10.98 22.66 -12 23 C-12.165 23.66 -12.33 24.32 -12.5 25 C-12.665 25.66 -12.83 26.32 -13 27 C-13.99 27.33 -14.98 27.66 -16 28 C-12.20080573 17.86881527 -6.58269578 8.56350697 0 0 Z " fill="#80C837" transform="translate(77,145)"/>
<path d="M0 0 C0.66 0 1.32 0 2 0 C0.42472767 4.72581698 -1.95687616 7.19262122 -5.625 10.4375 C-7.85612331 12.9728674 -8.73520612 15.87462602 -9.5 19.125 C-10 21 -10 21 -12 24 C-12.66 24 -13.32 24 -14 24 C-14 24.66 -14 25.32 -14 26 C-15.32 25.67 -16.64 25.34 -18 25 C-17.01 24.34 -16.02 23.68 -15 23 C-14.0213854 21.15698758 -14.0213854 21.15698758 -13.25 19 C-10.79185058 13.16662235 -7.41686921 5.97913727 -1.78125 2.71484375 C-1.1934375 2.47894531 -0.605625 2.24304687 0 2 C0 1.34 0 0.68 0 0 Z " fill="#4F7242" transform="translate(120,54)"/>
<path d="M0 0 C2.30854925 2.12333613 3.78412576 4.13612842 5.1875 6.9375 C5.53167969 7.60652344 5.87585938 8.27554688 6.23046875 8.96484375 C7 11 7 11 7 15 C2.71 15 -1.58 15 -6 15 C-6.33 14.34 -6.66 13.68 -7 13 C-3.7 12.34 -0.4 11.68 3 11 C1.68 9.68 0.36 8.36 -1 7 C-0.01 6.01 0.98 5.02 2 4 C1.01 3.67 0.02 3.34 -1 3 C-0.67 2.01 -0.34 1.02 0 0 Z " fill="#38582B" transform="translate(408,218)"/>
<path d="M0 0 C7.50769231 -0.36923077 7.50769231 -0.36923077 10 1.5 C10.495 2.2425 10.495 2.2425 11 3 C10.01 3.66 9.02 4.32 8 5 C6.78715124 8.05429073 6.78715124 8.05429073 6 11 C4.02 11 2.04 11 0 11 C0 10.34 0 9.68 0 9 C0.66 9 1.32 9 2 9 C1.34 6.03 0.68 3.06 0 0 Z " fill="#285817" transform="translate(248,204)"/>
<path d="M0 0 C4.68139254 -0.02465288 9.36274759 -0.04283739 14.04418945 -0.05493164 C15.63794614 -0.05997157 17.23169819 -0.0668035 18.82543945 -0.07543945 C21.11150253 -0.08751999 23.39750467 -0.09323155 25.68359375 -0.09765625 C26.40026718 -0.10281754 27.11694061 -0.10797882 27.85533142 -0.11329651 C29.57063672 -0.11349263 31.28581266 -0.06192007 33 0 C34 1 34 1 34.1328125 3.25 C34.13023437 4.1575 34.12765625 5.065 34.125 6 C34.12886719 7.36125 34.12886719 7.36125 34.1328125 8.75 C34 11 34 11 33 12 C31.15108054 12.23363881 29.29511969 12.41303635 27.4375 12.5625 C26.42558594 12.64628906 25.41367187 12.73007813 24.37109375 12.81640625 C23.58863281 12.87699219 22.80617188 12.93757812 22 13 C22 12.34 22 11.68 22 11 C24.64 10.67 27.28 10.34 30 10 C30 9.34 30 8.68 30 8 C30.66 8 31.32 8 32 8 C31.67 5.69 31.34 3.38 31 1 C20.77 1 10.54 1 0 1 C0 0.67 0 0.34 0 0 Z " fill="#6F8962" transform="translate(621,188)"/>
<path d="M0 0 C0.66 0 1.32 0 2 0 C2.268125 0.928125 2.53625 1.85625 2.8125 2.8125 C3.72794661 5.97264607 3.72794661 5.97264607 5.6875 7.625 C6.120625 8.07875 6.55375 8.5325 7 9 C6.6875 11.1875 6.6875 11.1875 6 13 C5.67 12.01 5.34 11.02 5 10 C4.34 10 3.68 10 3 10 C1.66666667 8 0.33333333 6 -1 4 C-1.66 4 -2.32 4 -3 4 C-3.06058594 4.78246094 -3.12117187 5.56492188 -3.18359375 6.37109375 C-3.26738281 7.38300781 -3.35117187 8.39492187 -3.4375 9.4375 C-3.51871094 10.44683594 -3.59992187 11.45617187 -3.68359375 12.49609375 C-4 15 -4 15 -5 16 C-7.01964199 16.07244053 -9.04167124 16.08377188 -11.0625 16.0625 C-12.16722656 16.05347656 -13.27195312 16.04445312 -14.41015625 16.03515625 C-15.69212891 16.01775391 -15.69212891 16.01775391 -17 16 C-17 15.67 -17 15.34 -17 15 C-13.37 15 -9.74 15 -6 15 C-6.020625 13.22625 -6.04125 11.4525 -6.0625 9.625 C-6.125 4.25 -6.125 4.25 -5 2 C-2.4375 1.375 -2.4375 1.375 0 1 C0 0.67 0 0.34 0 0 Z " fill="#5C794F" transform="translate(565,217)"/>
<path d="M0 0 C0 0.66 0 1.32 0 2 C-0.99 2.33 -1.98 2.66 -3 3 C-3.66 3.66 -4.32 4.32 -5 5 C-5.94875 4.835 -6.8975 4.67 -7.875 4.5 C-11.20621901 3.96700496 -12.24797917 4.20060177 -15 6 C-15 6.33 -15 6.66 -15 7 C-16.4117783 7.53394179 -17.82970244 8.05165104 -19.25 8.5625 C-20.03890625 8.85253906 -20.8278125 9.14257812 -21.640625 9.44140625 C-24.19103452 10.04522837 -25.55322229 9.8473932 -28 9 C-25.81623234 7.86722732 -23.62842872 6.74377211 -21.4375 5.625 C-20.82841797 5.30789062 -20.21933594 4.99078125 -19.59179688 4.6640625 C-13.13996874 1.38694345 -7.31821539 -0.29870267 0 0 Z " fill="#5C7D51" transform="translate(155,40)"/>
<path d="M0 0 C-0.80824219 0.31453125 -1.61648437 0.6290625 -2.44921875 0.953125 C-3.51785156 1.38109375 -4.58648437 1.8090625 -5.6875 2.25 C-7.27111328 2.87648437 -7.27111328 2.87648437 -8.88671875 3.515625 C-12.05076883 5.02420597 -14.35941481 6.71149283 -17 9 C-17.99966797 9.84304687 -17.99966797 9.84304687 -19.01953125 10.703125 C-19.61121094 11.21359375 -20.20289062 11.7240625 -20.8125 12.25 C-21.41707031 12.77078125 -22.02164063 13.2915625 -22.64453125 13.828125 C-23.09183594 14.21484375 -23.53914063 14.6015625 -24 15 C-24.66 14.67 -25.32 14.34 -26 14 C-24.60667426 10.63279613 -23.0210714 9.0140476 -20 7 C-19.34 7.33 -18.68 7.66 -18 8 C-18 7.34 -18 6.68 -18 6 C-13.14559066 1.02111863 -6.98557497 -2.32852499 0 0 Z " fill="#86CF3B" transform="translate(100,202)"/>
<path d="M0 0 C2.08564598 6.51764368 0.84709956 12.57873496 -1 18.9375 C-1.19078125 19.62134766 -1.3815625 20.30519531 -1.578125 21.00976562 C-2.04404937 22.67544526 -2.52088411 24.33806675 -3 26 C-3.66 26 -4.32 26 -5 26 C-5 28.64 -5 31.28 -5 34 C-5.33 34 -5.66 34 -6 34 C-6.53280378 26.54074709 -4.92791149 19.98722183 -3.0234375 12.84375 C-1.88892377 8.58282819 -0.92366076 4.31041689 0 0 Z " fill="#517146" transform="translate(27,204)"/>
<path d="M0 0 C8.91 0 17.82 0 27 0 C25.02 0.99 25.02 0.99 23 2 C22.67 2.66 22.34 3.32 22 4 C15.4 3.67 8.8 3.34 2 3 C2 2.34 2 1.68 2 1 C1.34 0.67 0.68 0.34 0 0 Z " fill="#39642B" transform="translate(347,188)"/>
<path d="M0 0 C0.66 0 1.32 0 2 0 C3.2062252 3.61867559 3.10816918 6.92506251 3.0625 10.6875 C3.05798828 11.38939453 3.05347656 12.09128906 3.04882812 12.81445312 C3.03706927 14.54300538 3.01913454 16.27151365 3 18 C3.9075 17.938125 4.815 17.87625 5.75 17.8125 C9.28982642 18.01672076 10.44931155 18.64551835 13 21 C11.18757948 21.02687279 9.37504767 21.04633715 7.5625 21.0625 C6.55316406 21.07410156 5.54382813 21.08570313 4.50390625 21.09765625 C2 21 2 21 1 20 C0.84344973 18.51361008 0.74933057 17.02050873 0.68359375 15.52734375 C0.64169922 14.62822266 0.59980469 13.72910156 0.55664062 12.80273438 C0.51732422 11.85720703 0.47800781 10.91167969 0.4375 9.9375 C0.39431641 8.98810547 0.35113281 8.03871094 0.30664062 7.06054688 C0.20020724 4.70718647 0.09818992 2.35371646 0 0 Z " fill="#567849" transform="translate(449,212)"/>
<path d="M0 0 C1.32 0.33 2.64 0.66 4 1 C3.67 1.66 3.34 2.32 3 3 C0.68687878 3.60430292 -1.65236404 4.11048541 -4 4.5625 C-8.32673606 5.06104207 -8.32673606 5.06104207 -12 7 C-15.45114703 7.25146124 -18.91577203 7.18522419 -22.375 7.1875 C-23.34695312 7.19974609 -24.31890625 7.21199219 -25.3203125 7.22460938 C-26.72023438 7.22750977 -26.72023438 7.22750977 -28.1484375 7.23046875 C-29.43500244 7.23663208 -29.43500244 7.23663208 -30.74755859 7.24291992 C-33 7 -33 7 -36 5 C-29.07 5 -22.14 5 -15 5 C-15 4.67 -15 4.34 -15 4 C-10.05 3.34 -5.1 2.68 0 2 C0 1.34 0 0.68 0 0 Z " fill="#6DB42C" transform="translate(135,319)"/>
<path d="M0 0 C7.94957992 -0.22428282 15.27111181 0.04596958 23 2 C19.09519751 3.35862973 15.2898224 2.89469712 11.25 2.5625 C10.55261719 2.51029297 9.85523437 2.45808594 9.13671875 2.40429688 C7.42403797 2.27525928 5.71194934 2.13840386 4 2 C4 2.66 4 3.32 4 4 C4.66 4 5.32 4 6 4 C6.33 4.66 6.66 5.32 7 6 C7.99 6.66 8.98 7.32 10 8 C5.61999924 7.49942848 3.15830185 6.06806466 0 3 C0 2.01 0 1.02 0 0 Z " fill="#58961D" transform="translate(67,93)"/>
<path d="M0 0 C0.66 0.33 1.32 0.66 2 1 C1.67 1.99 1.34 2.98 1 4 C1.78375 3.95875 2.5675 3.9175 3.375 3.875 C6 4 6 4 8 6 C8 6.99 8 7.98 8 9 C4.04 9 0.08 9 -4 9 C-2.68 8.67 -1.36 8.34 0 8 C0 7.34 0 6.68 0 6 C-0.66 6 -1.32 6 -2 6 C-1.125 1.125 -1.125 1.125 0 0 Z " fill="#20500D" transform="translate(538,223)"/>
<path d="M0 0 C0.99 0 1.98 0 3 0 C1.125 4.75 1.125 4.75 0 7 C-0.66 7 -1.32 7 -2 7 C-2.33 7.99 -2.66 8.98 -3 10 C-6.68754757 9.50168276 -8.60490662 8.89932357 -11 6 C-10.67 5.34 -10.34 4.68 -10 4 C-9.01 4 -8.02 4 -7 4 C-7 5.32 -7 6.64 -7 8 C-6.01 7.67 -5.02 7.34 -4 7 C-3.67 6.34 -3.34 5.68 -3 5 C-3.99 4.67 -4.98 4.34 -6 4 C-6 3.34 -6 2.68 -6 2 C-4.7934375 1.7834375 -4.7934375 1.7834375 -3.5625 1.5625 C-1.07896294 1.25864751 -1.07896294 1.25864751 0 0 Z " fill="#476F39" transform="translate(445,216)"/>
<path d="M0 0 C2 2 2 2 2.125 4.625 C2.08375 5.40875 2.0425 6.1925 2 7 C1.67 7 1.34 7 1 7 C0.67 12.94 0.34 18.88 0 25 C-3.63 25 -7.26 25 -11 25 C-11 24.67 -11 24.34 -11 24 C-7.7 24 -4.4 24 -1 24 C-1.17917969 22.77023438 -1.35835938 21.54046875 -1.54296875 20.2734375 C-1.75878336 18.64075304 -1.97357313 17.00793288 -2.1875 15.375 C-2.30802734 14.56675781 -2.42855469 13.75851563 -2.55273438 12.92578125 C-3.21315336 7.68503704 -2.96553012 4.61636679 0 0 Z " fill="#47663D" transform="translate(429,208)"/>
<path d="M0 0 C0.33 0 0.66 0 1 0 C2.1752164 6.2442221 2.20229954 10.25794565 -1 16 C-3.1875 18.9375 -3.1875 18.9375 -5 21 C-6 18 -6 18 -5 15 C-4.34 14.67 -3.68 14.34 -3 14 C-2.38567131 11.68149993 -2.38567131 11.68149993 -2 9 C-1.40982952 5.9753763 -0.77344481 2.98328711 0 0 Z " fill="#557A49" transform="translate(412,197)"/>
<path d="M0 0 C3.96 0 7.92 0 12 0 C12 4.29 12 8.58 12 13 C11.67 13 11.34 13 11 13 C10.67 10.03 10.34 7.06 10 4 C6.04 4 2.08 4 -2 4 C-1.34 2.68 -0.68 1.36 0 0 Z " fill="#275018" transform="translate(450,188)"/>
<path d="M0 0 C0.33 0 0.66 0 1 0 C1.20923895 11.55463979 1.1142071 22.59838312 -1 34 C-1.33 34 -1.66 34 -2 34 C-2.66 31.69 -3.32 29.38 -4 27 C-3.34 27 -2.68 27 -2 27 C-1.34 18.09 -0.68 9.18 0 0 Z " fill="#154004" transform="translate(205,241)"/>
<path d="M0 0 C0.33 0 0.66 0 1 0 C1.95273814 4.01152901 2.12893791 7.75686941 2.1328125 11.875 C2.13410156 13.18984375 2.13539063 14.5046875 2.13671875 15.859375 C2.13462402 16.53935547 2.1325293 17.21933594 2.13037109 17.91992188 C2.12501662 19.99356399 2.13033077 22.06698955 2.13671875 24.140625 C2.13542969 25.45546875 2.13414062 26.7703125 2.1328125 28.125 C2.13168457 29.32382812 2.13055664 30.52265625 2.12939453 31.7578125 C2.01461285 34.63385167 1.66345991 37.20648457 1 40 C0.67 40 0.34 40 0 40 C0.00523682 39.05157227 0.01047363 38.10314453 0.01586914 37.12597656 C0.03293345 33.59992869 0.0454611 30.07392485 0.05493164 26.54785156 C0.05995365 25.02310493 0.0667725 23.49836309 0.07543945 21.97363281 C0.08759849 19.77928481 0.09324968 17.5850006 0.09765625 15.390625 C0.10289307 14.07094727 0.10812988 12.75126953 0.11352539 11.39160156 C0.02222591 8.66400516 -0.28045395 6.58901028 -1 4 C-0.5625 1.75 -0.5625 1.75 0 0 Z " fill="#56714D" transform="translate(205,230)"/>
<path d="M0 0 C1.73542222 5.85868104 0.55049615 11.55894154 -2 17 C-2.66 17 -3.32 17 -4 17 C-4 17.66 -4 18.32 -4 19 C-4.66 19 -5.32 19 -6 19 C-4.91081033 12.13523882 -3.09761199 6.22529789 0 0 Z " fill="#4A703D" transform="translate(478,192)"/>
<path d="M0 0 C0.33 0 0.66 0 1 0 C1.33 2.97 1.66 5.94 2 9 C3.11375 7.88625 3.11375 7.88625 4.25 6.75 C6.5 4.5 8.75 2.25 11 0 C11 0.66 11 1.32 11 2 C11.66 2.33 12.32 2.66 13 3 C12.0409375 3.1546875 12.0409375 3.1546875 11.0625 3.3125 C10.381875 3.539375 9.70125 3.76625 9 4 C8.67 4.99 8.34 5.98 8 7 C5.625 10.1875 5.625 10.1875 3 13 C2.01 13 1.02 13 0 13 C0 8.71 0 4.42 0 0 Z " fill="#779069" transform="translate(560,189)"/>
<path d="M0 0 C10.56 0 21.12 0 32 0 C32 0.33 32 0.66 32 1 C22.43 1.33 12.86 1.66 3 2 C2.34 4.64 1.68 7.28 1 10 C0.67 10 0.34 10 0 10 C0 6.7 0 3.4 0 0 Z " fill="#315722" transform="translate(620,189)"/>
<path d="M0 0 C3.08325358 -0.0582253 6.16636505 -0.09367134 9.25 -0.125 C10.55904297 -0.15013672 10.55904297 -0.15013672 11.89453125 -0.17578125 C12.73886719 -0.18222656 13.58320313 -0.18867188 14.453125 -0.1953125 C15.22817383 -0.20578613 16.00322266 -0.21625977 16.80175781 -0.22705078 C19.25883539 0.02673444 20.87311542 0.77555848 23 2 C15.64206267 2.91160286 8.41017023 3.11459026 1 3 C0.67 2.01 0.34 1.02 0 0 Z " fill="#3D642F" transform="translate(312,188)"/>
<path d="M0 0 C0 0.66 0 1.32 0 2 C-3.67266227 4.5081596 -7.66910906 6.36222683 -11.6875 8.25 C-12.82574219 8.79140625 -13.96398437 9.3328125 -15.13671875 9.890625 C-16.08160156 10.25671875 -17.02648437 10.6228125 -18 11 C-18.66 10.67 -19.32 10.34 -20 10 C-17.03012671 6.41140311 -14.23737968 5.17323997 -9.9609375 3.7265625 C-7.78626927 2.98939347 -7.78626927 2.98939347 -5.1875 1.3125 C-3 0 -3 0 0 0 Z " fill="#66AE22" transform="translate(158,310)"/>
<path d="M0 0 C1.12865035 3.32575637 0.8691177 5.12203171 -0.375 8.375 C-1.65514162 11.91146429 -2.51962722 15.25309231 -3 19 C-3.66 19 -4.32 19 -5 19 C-5 20.65 -5 22.3 -5 24 C-5.66 24 -6.32 24 -7 24 C-6.5727029 18.23148916 -5.24534729 13.66221835 -2.98828125 8.34375 C-1.83515903 5.60907279 -0.89342196 2.82916954 0 0 Z " fill="#71B82F" transform="translate(52,190)"/>
<path d="M0 0 C0.66 0.66 1.32 1.32 2 2 C-0.43572463 5.30562629 -2.25888288 7.3229475 -6 9 C-6.33 9.66 -6.66 10.32 -7 11 C-6.34 11.33 -5.68 11.66 -5 12 C-6.65 12.33 -8.3 12.66 -10 13 C-10.33 13.99 -10.66 14.98 -11 16 C-11.66 15.67 -12.32 15.34 -13 15 C-11.21285146 12.6838794 -9.42058195 10.37206728 -7.625 8.0625 C-7.11710937 7.40314453 -6.60921875 6.74378906 -6.0859375 6.06445312 C-5.59609375 5.43603516 -5.10625 4.80761719 -4.6015625 4.16015625 C-4.15119629 3.57886963 -3.70083008 2.99758301 -3.23681641 2.39868164 C-2 1 -2 1 0 0 Z " fill="#708B5E" transform="translate(74,120)"/>
<path d="M0 0 C1.65 0.33 3.3 0.66 5 1 C3.6875 2.5 3.6875 2.5 2 4 C1.01 4 0.02 4 -1 4 C-1.33 4.99 -1.66 5.98 -2 7 C-4.21484375 8.38671875 -4.21484375 8.38671875 -6.9375 9.6875 C-8.28134766 10.34298828 -8.28134766 10.34298828 -9.65234375 11.01171875 C-12 12 -12 12 -14 12 C-14 11.34 -14 10.68 -14 10 C-12.68 10 -11.36 10 -10 10 C-10.33 9.01 -10.66 8.02 -11 7 C-9.02 7 -7.04 7 -5 7 C-5 6.01 -5 5.02 -5 4 C-3.35 3.34 -1.7 2.68 0 2 C0 1.34 0 0.68 0 0 Z " fill="#658458" transform="translate(168,323)"/>
<path d="M0 0 C7.92 0 15.84 0 24 0 C18.79222948 3.47184701 13.21696647 3.13923989 7.125 3.0625 C6.09246094 3.05573242 6.09246094 3.05573242 5.0390625 3.04882812 C3.35933665 3.03716336 1.67965625 3.01923271 0 3 C0 2.01 0 1.02 0 0 Z " fill="#59981F" transform="translate(125,101)"/>
<path d="M0 0 C4.72867022 0.46359512 8.18142796 1.0799155 12 4 C12.33 4.99 12.66 5.98 13 7 C14.65 6.67 16.3 6.34 18 6 C18.66 7.32 19.32 8.64 20 10 C15.49715604 9.3726954 11.75776327 7.60379851 7.75 5.5625 C7.11320312 5.24990234 6.47640625 4.93730469 5.8203125 4.61523438 C1.12673241 2.25346482 1.12673241 2.25346482 0 0 Z " fill="#5A774D" transform="translate(62,329)"/>
<path d="M0 0 C0.74507812 0.00451172 1.49015625 0.00902344 2.2578125 0.01367188 C4.0885764 0.02540754 5.91929873 0.0433415 7.75 0.0625 C7.42 1.0525 7.09 2.0425 6.75 3.0625 C6.75 2.4025 6.75 1.7425 6.75 1.0625 C5.76 2.0525 4.77 3.0425 3.75 4.0625 C3.09 3.7325 2.43 3.4025 1.75 3.0625 C-1.13370333 2.99055131 -3.99239664 2.96958292 -6.875 3 C-8.07769531 3.00676758 -8.07769531 3.00676758 -9.3046875 3.01367188 C-11.28649006 3.02546832 -13.26825433 3.04340395 -15.25 3.0625 C-10.27209342 -0.25610439 -5.85809905 -0.06727499 0 0 Z " fill="#539319" transform="translate(152.25,92.9375)"/>
<path d="M0 0 C2.97619417 2.97619417 3.81809239 6.57543889 5.1875 10.5 C5.47302734 11.28503906 5.75855469 12.07007813 6.05273438 12.87890625 C6.31763672 13.63042969 6.58253906 14.38195312 6.85546875 15.15625 C7.22128052 16.18975586 7.22128052 16.18975586 7.59448242 17.24414062 C8 19 8 19 7 21 C6.01 20.34 5.02 19.68 4 19 C3.8125 16.375 3.8125 16.375 4 14 C3.01 13.67 2.02 13.34 1 13 C0.67 8.71 0.34 4.42 0 0 Z " fill="#608051" transform="translate(192,184)"/>
<path d="M0 0 C-1.82931516 2.47495581 -2.90739483 2.98147897 -5.96875 3.59375 C-10.78121974 4.19149103 -15.59618521 4.10781108 -20.4375 4.0625 C-21.35982422 4.05798828 -22.28214844 4.05347656 -23.23242188 4.04882812 C-25.48835048 4.03713938 -27.74413967 4.02075455 -30 4 C-30 3.67 -30 3.34 -30 3 C-28.81664063 2.96261719 -27.63328125 2.92523438 -26.4140625 2.88671875 C-14.8727028 2.46165412 -14.8727028 2.46165412 -3.75 -0.4765625 C-2 -1 -2 -1 0 0 Z " fill="#6FB52E" transform="translate(134,293)"/>
<path d="M0 0 C0.99 0.33 1.98 0.66 3 1 C2.67 2.98 2.34 4.96 2 7 C1.34 7 0.68 7 0 7 C0 7.66 0 8.32 0 9 C-2.97 9 -5.94 9 -9 9 C-8.67 8.34 -8.34 7.68 -8 7 C-5.69 7.33 -3.38 7.66 -1 8 C-1.33 7.01 -1.66 6.02 -2 5 C-5.00847418 3.77479736 -5.00847418 3.77479736 -8 3 C-8 2.67 -8 2.34 -8 2 C-6.865625 1.855625 -5.73125 1.71125 -4.5625 1.5625 C-1.19222799 1.38828522 -1.19222799 1.38828522 0 0 Z " fill="#557A48" transform="translate(256,213)"/>
<path d="M0 0 C2.46875 1.58984375 2.46875 1.58984375 5 4 C5.59375 7.12890625 5.59375 7.12890625 5.5 10.5625 C5.4896875 11.69816406 5.479375 12.83382812 5.46875 14.00390625 C4.97414355 17.16526583 4.51396355 18.12121341 2 20 C2.14133499 18.22880197 2.28823208 16.45804713 2.4375 14.6875 C2.51871094 13.70136719 2.59992188 12.71523437 2.68359375 11.69921875 C3 9 3 9 4 6 C3.34 6 2.68 6 2 6 C0 3 0 3 0 0 Z " fill="#395B2C" transform="translate(263,209)"/>
<path d="M0 0 C1.65 0 3.3 0 5 0 C2.4931234 3.7603149 1.35744075 3.98845125 -3 5 C-8.72106643 5.45508483 -13.63770037 5.25781037 -19 3 C-17.68 2.34 -16.36 1.68 -15 1 C-15 1.66 -15 2.32 -15 3 C-11.37 3.33 -7.74 3.66 -4 4 C-4 3.34 -4 2.68 -4 2 C-2.68 2 -1.36 2 0 2 C0 1.34 0 0.68 0 0 Z " fill="#5C7753" transform="translate(260,229)"/>
<path d="M0 0 C1.68178661 2.52267991 2.90106742 4.81091823 4.125 7.5625 C4.47820312 8.34753906 4.83140625 9.13257813 5.1953125 9.94140625 C6 12 6 12 6 14 C5.01 13.67 4.02 13.34 3 13 C3 12.34 3 11.68 3 11 C2.01 11 1.02 11 0 11 C-0.19491452 9.54263913 -0.38069358 8.08405407 -0.5625 6.625 C-0.66691406 5.81289062 -0.77132812 5.00078125 -0.87890625 4.1640625 C-1 2 -1 2 0 0 Z " fill="#3B5F2A" transform="translate(186,170)"/>
<path d="M0 0 C7.09629025 -0.31461385 12.68284595 -0.44572039 19 3 C18.67 3.99 18.34 4.98 18 6 C17.45472656 5.80664062 16.90945312 5.61328125 16.34765625 5.4140625 C10.9561948 3.55239547 5.59078274 2.12344334 0 1 C0 0.67 0 0.34 0 0 Z " fill="#63A821" transform="translate(106,219)"/>
<path d="M0 0 C2.97 0 5.94 0 9 0 C9.33 0.66 9.66 1.32 10 2 C7.03 1.67 4.06 1.34 1 1 C1 3.31 1 5.62 1 8 C3.64 8 6.28 8 9 8 C9 8.66 9 9.32 9 10 C6.03 10 3.06 10 0 10 C-0.95024979 6.30458414 -0.95024979 3.69541586 0 0 Z " fill="#537347" transform="translate(521,199)"/>
<path d="M0 0 C0.66 0 1.32 0 2 0 C1.44040477 3.82246588 -0.21317357 5.58971741 -2.9375 8.25 C-3.64777344 8.95640625 -4.35804687 9.6628125 -5.08984375 10.390625 C-7 12 -7 12 -9 12 C-7.79618552 9.50638429 -6.54571278 7.31856917 -5 5 C-4.34 5 -3.68 5 -3 5 C-2.690625 4.360625 -2.38125 3.72125 -2.0625 3.0625 C-1 1 -1 1 0 0 Z " fill="#79C02F" transform="translate(89,131)"/>
<path d="M0 0 C0.99 0.33 1.98 0.66 3 1 C3.33 1.99 3.66 2.98 4 4 C7.00847418 5.22520264 7.00847418 5.22520264 10 6 C10 6.33 10 6.66 10 7 C12.64 7.33 15.28 7.66 18 8 C18 8.33 18 8.66 18 9 C15.89646505 9.0810206 13.79204048 9.13919907 11.6875 9.1875 C9.92986328 9.23970703 9.92986328 9.23970703 8.13671875 9.29296875 C5 9 5 9 3.15625 7.6875 C1.51617861 5.2938823 0.80037585 2.77053177 0 0 Z " fill="#547248" transform="translate(528,224)"/>
<path d="M0 0 C0 0.99 0 1.98 0 3 C-1.32 3.33 -2.64 3.66 -4 4 C-4.33 3.34 -4.66 2.68 -5 2 C-7.99152582 2.77479736 -7.99152582 2.77479736 -11 4 C-11.33 4.99 -11.66 5.98 -12 7 C-12 5.68 -12 4.36 -12 3 C-4.71428571 -1.71428571 -4.71428571 -1.71428571 0 0 Z " fill="#587C4D" transform="translate(246,218)"/>
<path d="M0 0 C0.66 0 1.32 0 2 0 C2.2475 0.969375 2.495 1.93875 2.75 2.9375 C3.1625 3.948125 3.575 4.95875 4 6 C6.03243548 6.96877057 6.03243548 6.96877057 8 7 C8 8.98 8 10.96 8 13 C8.66 13 9.32 13 10 13 C9.67 13.99 9.34 14.98 9 16 C9 15.34 9 14.68 9 14 C8.34 14 7.68 14 7 14 C5.2734375 11.4453125 5.2734375 11.4453125 3.375 8.125 C2.74335938 7.03445313 2.11171875 5.94390625 1.4609375 4.8203125 C0 2 0 2 0 0 Z " fill="#5A7A4C" transform="translate(29,292)"/>
<path d="M0 0 C4.62 0 9.24 0 14 0 C12.95206337 4.19174654 12.08236365 5.21592961 9 8 C8.67 6.68 8.34 5.36 8 4 C8.66 4 9.32 4 10 4 C10 3.34 10 2.68 10 2 C6.7 1.67 3.4 1.34 0 1 C0 0.67 0 0.34 0 0 Z " fill="#5C784C" transform="translate(572,188)"/>
<path d="M0 0 C0.33 0 0.66 0 1 0 C1 1.98 1 3.96 1 6 C-3.29 6 -7.58 6 -12 6 C-11 4 -11 4 -10 3 C-8.31391034 2.92794489 -6.62499341 2.91613932 -4.9375 2.9375 C-4.01839844 2.94652344 -3.09929687 2.95554688 -2.15234375 2.96484375 C-1.44207031 2.97644531 -0.73179687 2.98804688 0 3 C0 2.01 0 1.02 0 0 Z " fill="#4D6B40" transform="translate(507,227)"/>
<path d="M0 0 C2.62002725 2.37050084 4.35819909 4.87276017 6 8 C6 8.99 6 9.98 6 11 C4.02 10.34 2.04 9.68 0 9 C0 6 0 6 2 4 C1.01 3.67 0.02 3.34 -1 3 C-0.67 2.01 -0.34 1.02 0 0 Z " fill="#527843" transform="translate(408,218)"/>
<path d="M0 0 C-0.66 1.98 -1.32 3.96 -2 6 C-4.31 5.67 -6.62 5.34 -9 5 C-8.67 4.34 -8.34 3.68 -8 3 C-7.34 3 -6.68 3 -6 3 C-6 2.34 -6 1.68 -6 1 C-4 0 -4 0 0 0 Z " fill="#61A51C" transform="translate(136,96)"/>
<path d="M0 0 C-0.33 0.66 -0.66 1.32 -1 2 C-1.99 2.33 -2.98 2.66 -4 3 C-5.42857119 4.40105576 -5.42857119 4.40105576 -6.6875 6.0625 C-7.450625 7.031875 -8.21375 8.00125 -9 9 C-9.33 7.68 -9.66 6.36 -10 5 C-9.34 5 -8.68 5 -8 5 C-8 3.68 -8 2.36 -8 1 C-5.07175348 0.02391783 -3.04386724 -0.08226668 0 0 Z " fill="#52764A" transform="translate(139,66)"/>
<path d="M0 0 C0 0.66 0 1.32 0 2 C-0.99 2.33 -1.98 2.66 -3 3 C-3.66 3.66 -4.32 4.32 -5 5 C-6.98 4.34 -8.96 3.68 -11 3 C-8.89427904 -1.21144191 -4.11694326 -0.07767817 0 0 Z " fill="#416631" transform="translate(155,40)"/>
<path d="M0 0 C0 3.92233121 -1.32687526 5.09167231 -3.75 8.125 C-4.44609375 9.01445312 -5.1421875 9.90390625 -5.859375 10.8203125 C-8.01168258 13.01189576 -9.00607607 13.6628464 -12 14 C-11.34 12.68 -10.68 11.36 -10 10 C-9.34 10 -8.68 10 -8 10 C-8 9.34 -8 8.68 -8 8 C-6.3777546 6.29006566 -4.70586575 4.62652316 -3 3 C-2.401875 2.401875 -1.80375 1.80375 -1.1875 1.1875 C-0.795625 0.795625 -0.40375 0.40375 0 0 Z " fill="#72BC1B" transform="translate(156,302)"/>
<path d="M0 0 C0.33 1.32 0.66 2.64 1 4 C1.7425 3.979375 2.485 3.95875 3.25 3.9375 C6 4 6 4 8.125 4.5625 C10.20883241 5.22123618 10.20883241 5.22123618 13 4 C13 4.66 13 5.32 13 6 C10.35541621 7.32229189 8.32238699 7.09677194 5.375 7.0625 C4.37210937 7.05347656 3.36921875 7.04445312 2.3359375 7.03515625 C1.56507813 7.02355469 0.79421875 7.01195312 0 7 C-1.04449911 3.86650268 -0.93423645 3.01031744 0 0 Z " fill="#4C6B42" transform="translate(465,226)"/>
<path d="M0 0 C2.86688248 0.09096556 5.70300515 0.23767988 8.5625 0.4375 C9.36880859 0.48970703 10.17511719 0.54191406 11.00585938 0.59570312 C13.00421738 0.72577376 15.00215386 0.86229056 17 1 C17 1.33 17 1.66 17 2 C12.05 2 7.1 2 2 2 C2 3.32 2 4.64 2 6 C1.01 6 0.02 6 -1 6 C-1.042721 4.33388095 -1.04063832 2.66617115 -1 1 C-0.67 0.67 -0.34 0.34 0 0 Z " fill="#617E56" transform="translate(600,198)"/>
<path d="M0 0 C0.66 0.33 1.32 0.66 2 1 C1.38722388 3.96175123 0.74627478 5.38058783 -1 8 C-1.66 8 -2.32 8 -3 8 C-3 8.66 -3 9.32 -3 10 C-4.32 9.67 -5.64 9.34 -7 9 C-6.01 8.34 -5.02 7.68 -4 7 C-3.30899447 5.00827818 -2.64097297 3.00838196 -2 1 C-1.34 0.67 -0.68 0.34 0 0 Z " fill="#3F632C" transform="translate(109,70)"/>
<path d="M0 0 C0.33 0.66 0.66 1.32 1 2 C0.0625 4.625 0.0625 4.625 -1 7 C-1.66 7 -2.32 7 -3 7 C-3.0825 7.61875 -3.165 8.2375 -3.25 8.875 C-4 11 -4 11 -6.0625 12.25 C-6.701875 12.4975 -7.34125 12.745 -8 13 C-6.40956621 7.91061189 -3.2553049 4.12543357 0 0 Z " fill="#71B92D" transform="translate(77,145)"/>
<path d="M0 0 C-8.261959 4.59225513 -8.261959 4.59225513 -13 4 C-13 3.34 -13 2.68 -13 2 C-9.19220591 -0.28467645 -4.15048462 -2.07524231 0 0 Z " fill="#5D7D52" transform="translate(154,336)"/>
<path d="M0 0 C0.33 0.66 0.66 1.32 1 2 C1.928125 2.37125 1.928125 2.37125 2.875 2.75 C5.89795623 4.52820955 6.58785289 6.85476325 8 10 C8.99 11.485 8.99 11.485 10 13 C6.63834194 11.58956521 4.90494768 9.98473966 2.75 7.0625 C2.22921875 6.37285156 1.7084375 5.68320313 1.171875 4.97265625 C0 3 0 3 0 0 Z " fill="#839C76" transform="translate(48,103)"/>
<path d="M0 0 C0.61875 0.804375 1.2375 1.60875 1.875 2.4375 C3.74164041 5.03874519 3.74164041 5.03874519 6 6 C6 7.32 6 8.64 6 10 C2.58119536 8.86039845 1.20034214 7.82901133 -1 5 C-0.75 2.25 -0.75 2.25 0 0 Z " fill="#577B47" transform="translate(435,198)"/>
<path d="M0 0 C4.43424975 0.07069094 7.44280134 0.90795348 11.25 3.3125 C10.92 3.9725 10.59 4.6325 10.25 5.3125 C9.26 4.9825 8.27 4.6525 7.25 4.3125 C7.25 3.6525 7.25 2.9925 7.25 2.3125 C6.26 2.6425 5.27 2.9725 4.25 3.3125 C3.59 2.9825 2.93 2.6525 2.25 2.3125 C0.70976004 2.24299459 -0.83334988 2.22797643 -2.375 2.25 C-3.19226563 2.25902344 -4.00953125 2.26804688 -4.8515625 2.27734375 C-5.47804687 2.28894531 -6.10453125 2.30054688 -6.75 2.3125 C-4.26997407 -0.16752593 -3.42167487 0.01555307 0 0 Z " fill="#4E7143" transform="translate(252.75,187.6875)"/>
<path d="M0 0 C3.51705958 0.65271556 6.89325077 1.51393024 10.3125 2.5625 C11.19550781 2.83191406 12.07851562 3.10132813 12.98828125 3.37890625 C13.65214844 3.58386719 14.31601563 3.78882813 15 4 C15 4.33 15 4.66 15 5 C8.53673535 5.45356243 5.39068413 4.59378942 0 1 C0 0.67 0 0.34 0 0 Z " fill="#85D03A" transform="translate(89,292)"/>
<path d="M0 0 C3.17755309 3.46642155 4.45964644 7.38898294 5 12 C4.546875 14.25 4.546875 14.25 4 16 C3.34 15.67 2.68 15.34 2 15 C1.62109375 12.890625 1.62109375 12.890625 1.4375 10.25 C1.15763436 6.76167469 0.79710314 3.4161563 0 0 Z " fill="#5B9C20" transform="translate(178,202)"/>
<path d="M0 0 C1.65 0.33 3.3 0.66 5 1 C5.33 2.98 5.66 4.96 6 7 C5.01 7.495 5.01 7.495 4 8 C4 7.34 4 6.68 4 6 C2.35 6 0.7 6 -1 6 C0 4 0 4 1 3 C0.67 2.01 0.34 1.02 0 0 Z " fill="#5E814F" transform="translate(485,208)"/>
<path d="M0 0 C5.77378925 0.4811491 9.95859836 2.18467181 15 5 C12 6 12 6 10.25 5.1875 C9.5075 4.795625 8.765 4.40375 8 4 C6.783125 3.67 5.56625 3.34 4.3125 3 C3.219375 2.67 2.12625 2.34 1 2 C0.67 1.34 0.34 0.68 0 0 Z " fill="#5D9F1F" transform="translate(118,123)"/>
<path d="M0 0 C2.97 0 5.94 0 9 0 C9.33 0.99 9.66 1.98 10 3 C6.37 3 2.74 3 -1 3 C-0.67 2.01 -0.34 1.02 0 0 Z " fill="#325924" transform="translate(511,230)"/>
<path d="M0 0 C3.03869411 1.51934706 3.64410306 3.98004772 5 7 C5 7.66 5 8.32 5 9 C3.35 9 1.7 9 0 9 C0 6.03 0 3.06 0 0 Z " fill="#486836" transform="translate(539,218)"/>
<path d="M0 0 C4 4.75 4 4.75 4 7 C4.66 7 5.32 7 6 7 C6 7.99 6 8.98 6 10 C6.66 10.33 7.32 10.66 8 11 C7.01 11 6.02 11 5 11 C1.54736544 7.54736544 0.44925138 4.82945236 0 0 Z " fill="#84CD3A" transform="translate(86,258)"/>
<path d="M0 0 C0.99 0.33 1.98 0.66 3 1 C2.566875 1.495 2.13375 1.99 1.6875 2.5 C-0.56381668 5.83528397 -1.671061 9.20303142 -3 13 C-3.33 13 -3.66 13 -4 13 C-4 11.02 -4 9.04 -4 7 C-3.34 7 -2.68 7 -2 7 C-2 5.68 -2 4.36 -2 3 C-1.34 3 -0.68 3 0 3 C0 2.01 0 1.02 0 0 Z " fill="#76BE30" transform="translate(70,221)"/>
<path d="M0 0 C0.33 1.32 0.66 2.64 1 4 C2.98 4.495 2.98 4.495 5 5 C5.33 6.65 5.66 8.3 6 10 C5.01 10 4.02 10 3 10 C0.39749195 6.62637846 -0.36265043 4.23092172 0 0 Z " fill="#5D7B4D" transform="translate(271,219)"/>
<path d="M0 0 C1.79093191 -0.08086147 3.58289628 -0.13912702 5.375 -0.1875 C6.87160156 -0.23970703 6.87160156 -0.23970703 8.3984375 -0.29296875 C9.25695312 -0.19628906 10.11546875 -0.09960938 11 0 C11.66 0.99 12.32 1.98 13 3 C7.52667068 4.46845421 4.88077452 3.44038726 0 1 C0 0.67 0 0.34 0 0 Z " fill="#456B37" transform="translate(418,188)"/>
<path d="M0 0 C1.65 0 3.3 0 5 0 C3.66144904 2.67710191 2.27941912 2.95129094 -0.4375 4.125 C-1.24058594 4.47820312 -2.04367188 4.83140625 -2.87109375 5.1953125 C-5 6 -5 6 -7 6 C-6.67 4.68 -6.34 3.36 -6 2 C-4.35 2.33 -2.7 2.66 -1 3 C-0.67 2.01 -0.34 1.02 0 0 Z " fill="#55744A" transform="translate(167,114)"/>
<path d="M0 0 C1.08557659 3.24215827 0.94015194 5.02321809 -0.3125 8.1875 C-0.57675781 8.88230469 -0.84101563 9.57710937 -1.11328125 10.29296875 C-2 12 -2 12 -4 13 C-3.71812064 11.20676747 -3.4241719 9.41542874 -3.125 7.625 C-2.96257812 6.62726563 -2.80015625 5.62953125 -2.6328125 4.6015625 C-2 2 -2 2 0 0 Z " fill="#638159" transform="translate(180,96)"/>
<path d="M0 0 C8.57142857 0.85714286 8.57142857 0.85714286 12 3 C4 4.38461538 4 4.38461538 1 3 C0.67 2.01 0.34 1.02 0 0 Z " fill="#6D8D60" transform="translate(92,75)"/>
<path d="M0 0 C0.68835938 0.59748047 0.68835938 0.59748047 1.390625 1.20703125 C4.52271585 3.91142062 7.63877459 6.57991771 11 9 C8.03 8.505 8.03 8.505 5 8 C4.67 7.01 4.34 6.02 4 5 C1.99983534 3.79117904 1.99983534 3.79117904 0 3 C0 2.01 0 1.02 0 0 Z " fill="#83CB38" transform="translate(75,280)"/>
<path d="M0 0 C0.33 0 0.66 0 1 0 C1.31563182 5.26053037 0.66590937 8.44573816 -2 13 C-2.33 13 -2.66 13 -3 13 C-2.45144652 8.428721 -1.58255197 4.32564205 0 0 Z " fill="#6D8864" transform="translate(470,212)"/>
<path d="M0 0 C2.625 1.0625 2.625 1.0625 5 3 C5.3125 6.1875 5.3125 6.1875 5 9 C4.401875 8.236875 3.80375 7.47375 3.1875 6.6875 C1.53040668 4.6516425 -0.10297674 2.8021721 -2 1 C-1.34 0.67 -0.68 0.34 0 0 Z " fill="#426535" transform="translate(393,216)"/>
<path d="M0 0 C0.70125 0.144375 1.4025 0.28875 2.125 0.4375 C5.07556141 1.01478375 8.03270151 1.51695141 11 2 C9.75 3.5 9.75 3.5 8 5 C6.68 5 5.36 5 4 5 C1.75 2.5 1.75 2.5 0 0 Z " fill="#637D5A" transform="translate(252,199)"/>
<path d="M0 0 C2.67901932 2.31881505 3.66204403 4.31814468 4.6875 7.6875 C4.93886719 8.49574219 5.19023437 9.30398437 5.44921875 10.13671875 C5.63097656 10.75160156 5.81273437 11.36648437 6 12 C3.24616077 10.62308038 2.48516899 8.63279958 1 6 C0.01 6.495 0.01 6.495 -1 7 C-0.67 4.69 -0.34 2.38 0 0 Z " fill="#599A1B" transform="translate(169,180)"/>
<path d="M0 0 C2.475 0.495 2.475 0.495 5 1 C5.33 1.99 5.66 2.98 6 4 C7.49985609 5.66710346 7.49985609 5.66710346 9 7 C6 7 6 7 4.39453125 5.46875 C3.87246094 4.8190625 3.35039063 4.169375 2.8125 3.5 C2.28269531 2.8503125 1.75289062 2.200625 1.20703125 1.53125 C0.80871094 1.0259375 0.41039062 0.520625 0 0 Z " fill="#4C6D43" transform="translate(43,313)"/>
<path d="M0 0 C1.98 0.66 3.96 1.32 6 2 C6 2.66 6 3.32 6 4 C6.639375 4.103125 7.27875 4.20625 7.9375 4.3125 C8.618125 4.539375 9.29875 4.76625 10 5 C10.33 5.99 10.66 6.98 11 8 C6.99698968 6.23867546 3.3971023 3.73867517 0 1 C0 0.67 0 0.34 0 0 Z " fill="#7BC236" transform="translate(62,305)"/>
<path d="M0 0 C0.66 0.33 1.32 0.66 2 1 C0.68938409 5.23429756 -0.94356259 9.07407404 -3 13 C-3.33 13 -3.66 13 -4 13 C-3.74438677 10.6568787 -3.40729228 8.32156597 -3 6 C-2.34 5.67 -1.68 5.34 -1 5 C-0.34444881 2.47266765 -0.34444881 2.47266765 0 0 Z " fill="#69875F" transform="translate(199,285)"/>
<path d="M0 0 C2 2 2 2 2.125 4.625 C2.08375 5.40875 2.0425 6.1925 2 7 C1.34 6.67 0.68 6.34 0 6 C-0.33 8.31 -0.66 10.62 -1 13 C-1.33 13 -1.66 13 -2 13 C-3.19876651 7.55106131 -2.91360308 4.77830905 0 0 Z " fill="#326323" transform="translate(429,208)"/>
<path d="M0 0 C0.99 0 1.98 0 3 0 C3 3.3 3 6.6 3 10 C2.01 10 1.02 10 0 10 C0 6.7 0 3.4 0 0 Z " fill="#537447" transform="translate(236,196)"/>
<path d="M0 0 C1.0625 1.8125 1.0625 1.8125 2 4 C1.67 4.99 1.34 5.98 1 7 C0.34 7 -0.32 7 -1 7 C-1.33 8.65 -1.66 10.3 -2 12 C-3.12377697 8.69564916 -2.89554742 6.9493138 -1.5625 3.75 C-1.27503906 3.04359375 -0.98757812 2.3371875 -0.69140625 1.609375 C-0.46324219 1.07828125 -0.23507813 0.5471875 0 0 Z " fill="#517343" transform="translate(34,184)"/>
<path d="M0 0 C0.33 1.32 0.66 2.64 1 4 C0.34 4 -0.32 4 -1 4 C-1 5.65 -1 7.3 -1 9 C-2.98 9.99 -2.98 9.99 -5 11 C-3.77472971 6.94718288 -2.30119506 3.55639236 0 0 Z " fill="#68885C" transform="translate(51,150)"/>
<path d="M0 0 C0.66 0 1.32 0 2 0 C1.8125 1.8125 1.8125 1.8125 1 4 C-2.34811134 6.53370588 -3.70124217 7 -8 7 C-8 6.34 -8 5.68 -8 5 C-6.865625 4.731875 -5.73125 4.46375 -4.5625 4.1875 C-3.386875 3.795625 -2.21125 3.40375 -1 3 C-0.67 2.01 -0.34 1.02 0 0 Z " fill="#65A825" transform="translate(157,94)"/>
<path d="M0 0 C2.83374881 3.20336822 3.5205537 5.78087253 4 10 C3.01 10.495 3.01 10.495 2 11 C0.80712589 7.12315913 0 4.08378077 0 0 Z " fill="#637F59" transform="translate(497,201)"/>
<path d="M0 0 C9.41002278 -0.18451025 9.41002278 -0.18451025 14 1 C13.67 1.66 13.34 2.32 13 3 C11.02013918 2.88652381 9.04108402 2.7589065 7.0625 2.625 C5.96035156 2.55539063 4.85820313 2.48578125 3.72265625 2.4140625 C2.82417969 2.27742187 1.92570313 2.14078125 1 2 C0.67 1.34 0.34 0.68 0 0 Z " fill="#163D09" transform="translate(601,204)"/>
<path d="M0 0 C0.99 0.33 1.98 0.66 3 1 C4.23076923 6.41538462 4.23076923 6.41538462 3.0625 9.375 C2.711875 9.91125 2.36125 10.4475 2 11 C0.80712589 7.12315913 0 4.08378077 0 0 Z " fill="#476D3B" transform="translate(24,277)"/>
<path d="M0 0 C0.99 0 1.98 0 3 0 C2.67 1.65 2.34 3.3 2 5 C1.34 5 0.68 5 0 5 C0 7.64 0 10.28 0 13 C-0.33 13 -0.66 13 -1 13 C-1.0272415 11.58344207 -1.04650467 10.16672955 -1.0625 8.75 C-1.07410156 7.96109375 -1.08570312 7.1721875 -1.09765625 6.359375 C-1.00385306 4.09308998 -0.63241063 2.1711105 0 0 Z " fill="#799670" transform="translate(22,225)"/>
<path d="M0 0 C1.32 0 2.64 0 4 0 C4 1.32 4 2.64 4 4 C5.32 3.67 6.64 3.34 8 3 C8 3.99 8 4.98 8 6 C5.21788056 5.62403791 3.4120716 5.32681541 1.1875 3.5625 C0 2 0 2 0 0 Z " fill="#5C7855" transform="translate(434,220)"/>
<path d="M0 0 C2.83374881 3.20336822 3.5205537 5.78087253 4 10 C2 10 2 10 0.3125 8.375 C-1.43013159 5.22166664 -0.8539524 3.41580961 0 0 Z " fill="#678559" transform="translate(503,217)"/>
<path d="M0 0 C0.66 0 1.32 0 2 0 C1.75 2.875 1.75 2.875 1 6 C-1.0625 7.375 -1.0625 7.375 -3 8 C-1.125 1.125 -1.125 1.125 0 0 Z " fill="#174B01" transform="translate(257,207)"/>
<path d="M0 0 C1.32 0.66 2.64 1.32 4 2 C4 2.99 4 3.98 4 5 C2.35 5.66 0.7 6.32 -1 7 C-0.67 4.69 -0.34 2.38 0 0 Z " fill="#3B652C" transform="translate(401,200)"/>
<path d="M0 0 C0.66 0.66 1.32 1.32 2 2 C0.71937515 3.7074998 -0.61767557 5.37373596 -2 7 C-2.66 7 -3.32 7 -4 7 C-3.6875 4.625 -3.6875 4.625 -3 2 C-2.01 1.34 -1.02 0.68 0 0 Z " fill="#476A3B" transform="translate(74,120)"/>
<path d="M0 0 C3.3 0.33 6.6 0.66 10 1 C10 1.66 10 2.32 10 3 C10.66 3.33 11.32 3.66 12 4 C7.6822542 3.49202991 3.96697886 2.80317221 0 1 C0 0.67 0 0.34 0 0 Z " fill="#6D8864" transform="translate(60,117)"/>
<path d="M0 0 C0.99 0 1.98 0 3 0 C4.4606285 2.64738916 5 3.89448334 5 7 C5.99 7.33 6.98 7.66 8 8 C7.34 8.66 6.68 9.32 6 10 C2 4.25 2 4.25 2 2 C1.34 2 0.68 2 0 2 C0 1.34 0 0.68 0 0 Z " fill="#78C033" transform="translate(46,284)"/>
<path d="M0 0 C0.66 0.99 1.32 1.98 2 3 C1.67 3.99 1.34 4.98 1 6 C-2.63 6 -6.26 6 -10 6 C-10 5.67 -10 5.34 -10 5 C-6.7 5 -3.4 5 0 5 C-0.66 4.67 -1.32 4.34 -2 4 C-2 3.34 -2 2.68 -2 2 C-1.34 2 -0.68 2 0 2 C0 1.34 0 0.68 0 0 Z " fill="#506C44" transform="translate(642,227)"/>
<path d="M0 0 C0.33 0.66 0.66 1.32 1 2 C0.34 2 -0.32 2 -1 2 C-1.0825 2.721875 -1.165 3.44375 -1.25 4.1875 C-2.14750201 7.55313254 -3.7114278 9.41612816 -6 12 C-5.39294514 7.87202695 -4.06000669 4.62561178 -2 1 C-1.34 0.67 -0.68 0.34 0 0 Z " fill="#2F6F06" transform="translate(75,218)"/>
<path d="M0 0 C1.98 0.495 1.98 0.495 4 1 C3.67 2.65 3.34 4.3 3 6 C1.68 6 0.36 6 -1 6 C-1 5.34 -1 4.68 -1 4 C-0.34 4 0.32 4 1 4 C0.67 2.68 0.34 1.36 0 0 Z " fill="#466D35" transform="translate(531,201)"/>
<path d="M0 0 C4.29 0 8.58 0 13 0 C13.33 0.99 13.66 1.98 14 3 C13.17242187 2.76990234 13.17242187 2.76990234 12.328125 2.53515625 C9.79682617 1.95329729 7.33558028 1.67564555 4.75 1.4375 C3.85796875 1.35371094 2.9659375 1.26992187 2.046875 1.18359375 C1.37140625 1.12300781 0.6959375 1.06242188 0 1 C0 0.67 0 0.34 0 0 Z " fill="#6A845B" transform="translate(480,188)"/>
<path d="M0 0 C0.33 0 0.66 0 1 0 C1.33 1.98 1.66 3.96 2 6 C-0.475 7.485 -0.475 7.485 -3 9 C-2.44271087 5.65626525 -1.64826111 2.96687001 0 0 Z " fill="#608252" transform="translate(38,175)"/>
<path d="M0 0 C0 0.66 0 1.32 0 2 C-2.90548882 4.04169485 -4.40142046 5 -8 5 C-7 2 -7 2 -5.125 0.8125 C-3 0 -3 0 0 0 Z " fill="#5FA120" transform="translate(158,310)"/>
<path d="M0 0 C0.33 0 0.66 0 1 0 C2.10228696 4.40914783 2.07654536 8.48382401 2 13 C1.67 13 1.34 13 1 13 C0.63447197 11.58622218 0.28304505 10.16879424 -0.0625 8.75 C-0.25972656 7.96109375 -0.45695313 7.1721875 -0.66015625 6.359375 C-1.01497267 3.89605178 -0.76877544 2.34395868 0 0 Z " fill="#90AD86" transform="translate(205,230)"/>
<path d="M0 0 C0.66 0 1.32 0 2 0 C1.64950425 3.24208567 1.43778819 4.61527704 -1.0625 6.8125 C-1.701875 7.204375 -2.34125 7.59625 -3 8 C-2.45276317 4.62537285 -1.9451 2.91765 0 0 Z " fill="#134E01" transform="translate(336,198)"/>
<path d="M0 0 C1.875 0.25 1.875 0.25 4 1 C5.25 3.0625 5.25 3.0625 6 5 C4.68 5.33 3.36 5.66 2 6 C1.67 5.34 1.34 4.68 1 4 C1.33 3.34 1.66 2.68 2 2 C1.34 2 0.68 2 0 2 C0 1.34 0 0.68 0 0 Z " fill="#608153" transform="translate(335,190)"/>
<path d="M0 0 C3.96 0 7.92 0 12 0 C12 0.33 12 0.66 12 1 C8.37 1 4.74 1 1 1 C0.67 1.99 0.34 2.98 0 4 C-0.66 4 -1.32 4 -2 4 C-1.34 2.68 -0.68 1.36 0 0 Z " fill="#6D8561" transform="translate(450,188)"/>
<path d="M0 0 C0.33 0 0.66 0 1 0 C1 1.98 1 3.96 1 6 C1.66 6 2.32 6 3 6 C2.67 8.31 2.34 10.62 2 13 C0.21590198 9.93753253 -0.22880021 7.77920727 -0.125 4.25 C-0.10695312 3.45078125 -0.08890625 2.6515625 -0.0703125 1.828125 C-0.04710937 1.22484375 -0.02390625 0.6215625 0 0 Z " fill="#6F865F" transform="translate(46,90)"/>
<path d="M0 0 C1.65 0 3.3 0 5 0 C5 0.66 5 1.32 5 2 C-0.75 5 -0.75 5 -3 5 C-3 4.34 -3 3.68 -3 3 C-1.68 3 -0.36 3 1 3 C0.67 2.01 0.34 1.02 0 0 Z " fill="#547347" transform="translate(157,330)"/>
<path d="M0 0 C0.33 1.32 0.66 2.64 1 4 C-0.65 5.32 -2.3 6.64 -4 8 C-4.66 7.67 -5.32 7.34 -6 7 C-4.02 4.69 -2.04 2.38 0 0 Z " fill="#75BC31" transform="translate(152,275)"/>
<path d="M0 0 C0.99 0.66 1.98 1.32 3 2 C1.1875 3.5625 1.1875 3.5625 -1 5 C-1.99 4.67 -2.98 4.34 -4 4 C-3.67 3.01 -3.34 2.02 -3 1 C-2.01 0.67 -1.02 0.34 0 0 Z " fill="#4F6C41" transform="translate(300,227)"/>
<path d="M0 0 C0.6875 1.8125 0.6875 1.8125 1 4 C-0.4375 5.75 -0.4375 5.75 -2 7 C-2.33 5.35 -2.66 3.7 -3 2 C-2.01 1.34 -1.02 0.68 0 0 Z " fill="#45643B" transform="translate(342,207)"/>
<path d="M0 0 C1.65 1.32 3.3 2.64 5 4 C4.67 5.32 4.34 6.64 4 8 C4 7.34 4 6.68 4 6 C3.34 6 2.68 6 2 6 C0 3 0 3 0 0 Z " fill="#506E43" transform="translate(263,209)"/>
<path d="M0 0 C2.0625 0.4375 2.0625 0.4375 4 1 C2.625 3 2.625 3 1 5 C0.34 5 -0.32 5 -1 5 C-1.33 5.66 -1.66 6.32 -2 7 C-2.33 6.01 -2.66 5.02 -3 4 C-2.01 4 -1.02 4 0 4 C-0.33 3.01 -0.66 2.02 -1 1 C-0.67 0.67 -0.34 0.34 0 0 Z " fill="#638C58" transform="translate(577,197)"/>
<path d="M0 0 C2.50298434 2.93828597 3.46930939 5.17902761 4 9 C3.01 8.67 2.02 8.34 1 8 C0.67 5.36 0.34 2.72 0 0 Z " fill="#658358" transform="translate(188,175)"/>
<path d="M0 0 C0.66 0.99 1.32 1.98 2 3 C1.34 3.66 0.68 4.32 0 5 C-0.33 5.99 -0.66 6.98 -1 8 C-1.99 8.33 -2.98 8.66 -4 9 C-2.94124926 5.59687262 -1.99097846 2.98646769 0 0 Z " fill="#6B9060" transform="translate(45,161)"/>
<path d="M0 0 C0.33 0.66 0.66 1.32 1 2 C-0.25 5.0625 -0.25 5.0625 -2 8 C-2.99 8.33 -3.98 8.66 -5 9 C-3.7508258 5.54074837 -2.32472205 2.85306797 0 0 Z " fill="#607F53" transform="translate(113,62)"/>
</svg>
